M48
; DRILL file {KiCad 7.0.5} date Wed Jul 12 22:01:33 2023
; FORMAT={-:-/ absolute / metric / decimal}
; #@! TF.CreationDate,2023-07-12T22:01:33-07:00
; #@! TF.GenerationSoftware,Kicad,Pcbnew,7.0.5
; #@! TF.FileFunction,NonPlated,1,2,NPTH
FMAT,2
METRIC
; #@! TA.AperFunction,NonPlated,NPTH,ComponentDrill
T1C1.750
; #@! TA.AperFunction,NonPlated,NPTH,ComponentDrill
T2C3.988
%
G90
G05
T1
X135.255Y-75.565
X135.255Y-94.615
X135.255Y-113.665
X135.255Y-132.715
X145.415Y-75.565
X145.415Y-94.615
X145.415Y-113.665
X145.415Y-132.715
X154.305Y-75.565
X154.305Y-94.615
X154.305Y-113.665
X154.305Y-132.715
X164.465Y-75.565
X164.465Y-94.615
X164.465Y-113.665
X164.465Y-132.715
X173.355Y-75.565
X173.355Y-94.615
X173.355Y-113.665
X173.355Y-132.715
X183.515Y-75.565
X183.515Y-94.615
X183.515Y-113.665
X183.515Y-132.715
T2
X140.335Y-75.565
X140.335Y-94.615
X140.335Y-113.665
X140.335Y-132.715
X159.385Y-75.565
X159.385Y-94.615
X159.385Y-113.665
X159.385Y-132.715
X178.435Y-75.565
X178.435Y-94.615
X178.435Y-113.665
X178.435Y-132.715
T0
M30
