G04 #@! TF.GenerationSoftware,KiCad,Pcbnew,7.0.5*
G04 #@! TF.CreationDate,2023-07-12T22:01:21-07:00*
G04 #@! TF.ProjectId,Custom_KeyPad,43757374-6f6d-45f4-9b65-795061642e6b,rev?*
G04 #@! TF.SameCoordinates,Original*
G04 #@! TF.FileFunction,Legend,Top*
G04 #@! TF.FilePolarity,Positive*
%FSLAX46Y46*%
G04 Gerber Fmt 4.6, Leading zero omitted, Abs format (unit mm)*
G04 Created by KiCad (PCBNEW 7.0.5) date 2023-07-12 22:01:21*
%MOMM*%
%LPD*%
G01*
G04 APERTURE LIST*
G04 Aperture macros list*
%AMRoundRect*
0 Rectangle with rounded corners*
0 $1 Rounding radius*
0 $2 $3 $4 $5 $6 $7 $8 $9 X,Y pos of 4 corners*
0 Add a 4 corners polygon primitive as box body*
4,1,4,$2,$3,$4,$5,$6,$7,$8,$9,$2,$3,0*
0 Add four circle primitives for the rounded corners*
1,1,$1+$1,$2,$3*
1,1,$1+$1,$4,$5*
1,1,$1+$1,$6,$7*
1,1,$1+$1,$8,$9*
0 Add four rect primitives between the rounded corners*
20,1,$1+$1,$2,$3,$4,$5,0*
20,1,$1+$1,$4,$5,$6,$7,0*
20,1,$1+$1,$6,$7,$8,$9,0*
20,1,$1+$1,$8,$9,$2,$3,0*%
G04 Aperture macros list end*
%ADD10C,0.200000*%
%ADD11C,0.150000*%
%ADD12C,0.120000*%
%ADD13C,2.600000*%
%ADD14C,3.500000*%
%ADD15O,1.600000X2.000000*%
%ADD16RoundRect,0.200000X0.800000X-0.200000X0.800000X0.200000X-0.800000X0.200000X-0.800000X-0.200000X0*%
%ADD17C,2.000000*%
%ADD18R,2.000000X3.200000*%
%ADD19R,2.000000X2.000000*%
%ADD20C,3.300000*%
%ADD21C,1.750000*%
%ADD22C,3.987800*%
%ADD23R,1.600000X1.600000*%
%ADD24O,1.600000X1.600000*%
G04 APERTURE END LIST*
D10*
G36*
X175293275Y-48425000D02*
G01*
X175293275Y-45329954D01*
X175981307Y-45329954D01*
X176327155Y-46664986D01*
X176677399Y-45329954D01*
X177369828Y-45329954D01*
X177369828Y-48425000D01*
X176875969Y-48425000D01*
X176875969Y-47128803D01*
X176876026Y-47095481D01*
X176876198Y-47062010D01*
X176876484Y-47028390D01*
X176876885Y-46994622D01*
X176877400Y-46960704D01*
X176878030Y-46926638D01*
X176878774Y-46892423D01*
X176879632Y-46858060D01*
X176880606Y-46823547D01*
X176881693Y-46788885D01*
X176882895Y-46754075D01*
X176884212Y-46719116D01*
X176885643Y-46684008D01*
X176887189Y-46648751D01*
X176888849Y-46613345D01*
X176890623Y-46577791D01*
X176892481Y-46542231D01*
X176894390Y-46506808D01*
X176896351Y-46471522D01*
X176898363Y-46436374D01*
X176900426Y-46401364D01*
X176902542Y-46366490D01*
X176904708Y-46331754D01*
X176906927Y-46297156D01*
X176909196Y-46262695D01*
X176911518Y-46228371D01*
X176913890Y-46194185D01*
X176916315Y-46160136D01*
X176918790Y-46126224D01*
X176921318Y-46092450D01*
X176923897Y-46058813D01*
X176926527Y-46025314D01*
X176929200Y-45991980D01*
X176931908Y-45959024D01*
X176934650Y-45926447D01*
X176937426Y-45894247D01*
X176940237Y-45862425D01*
X176943082Y-45830980D01*
X176945961Y-45799914D01*
X176948875Y-45769225D01*
X176951823Y-45738914D01*
X176954806Y-45708981D01*
X176957823Y-45679426D01*
X176960874Y-45650248D01*
X176965515Y-45607190D01*
X176970233Y-45564983D01*
X176973422Y-45537316D01*
X176538181Y-47080443D01*
X176103673Y-47080443D01*
X175686018Y-45576151D01*
X175690755Y-45612953D01*
X175695440Y-45650637D01*
X175700074Y-45689203D01*
X175704656Y-45728650D01*
X175709187Y-45768979D01*
X175713667Y-45810189D01*
X175718094Y-45852281D01*
X175722471Y-45895254D01*
X175726796Y-45939109D01*
X175731069Y-45983846D01*
X175735291Y-46029464D01*
X175739461Y-46075963D01*
X175743580Y-46123345D01*
X175747647Y-46171607D01*
X175751663Y-46220752D01*
X175755627Y-46270778D01*
X175759442Y-46321359D01*
X175763011Y-46372352D01*
X175766334Y-46423758D01*
X175769411Y-46475575D01*
X175772242Y-46527805D01*
X175774827Y-46580447D01*
X175777165Y-46633501D01*
X175779257Y-46686967D01*
X175781103Y-46740846D01*
X175782703Y-46795136D01*
X175784057Y-46849839D01*
X175785165Y-46904954D01*
X175786026Y-46960481D01*
X175786642Y-47016420D01*
X175787011Y-47072772D01*
X175787134Y-47129535D01*
X175787134Y-48425000D01*
X175293275Y-48425000D01*
G37*
G36*
X178912548Y-46034192D02*
G01*
X178965550Y-46036648D01*
X179017007Y-46040741D01*
X179066919Y-46046471D01*
X179115284Y-46053838D01*
X179162105Y-46062843D01*
X179207379Y-46073485D01*
X179251108Y-46085764D01*
X179293292Y-46099680D01*
X179333930Y-46115233D01*
X179373022Y-46132424D01*
X179410568Y-46151251D01*
X179446569Y-46171716D01*
X179481025Y-46193818D01*
X179513935Y-46217557D01*
X179545299Y-46242934D01*
X179574934Y-46269707D01*
X179602658Y-46297820D01*
X179628469Y-46327272D01*
X179652369Y-46358064D01*
X179674356Y-46390195D01*
X179694432Y-46423666D01*
X179712596Y-46458476D01*
X179728847Y-46494626D01*
X179743187Y-46532116D01*
X179755615Y-46570944D01*
X179766131Y-46611113D01*
X179774734Y-46652621D01*
X179781426Y-46695468D01*
X179786206Y-46739655D01*
X179789074Y-46785182D01*
X179790030Y-46832048D01*
X179790030Y-48425000D01*
X179275655Y-48425000D01*
X179275655Y-48002948D01*
X179268689Y-48043327D01*
X179259057Y-48082031D01*
X179246758Y-48119061D01*
X179231794Y-48154417D01*
X179214163Y-48188098D01*
X179193867Y-48220105D01*
X179170904Y-48250437D01*
X179145275Y-48279095D01*
X179116980Y-48306079D01*
X179086018Y-48331388D01*
X179063896Y-48347330D01*
X179028996Y-48369591D01*
X178992163Y-48389663D01*
X178953399Y-48407544D01*
X178912702Y-48423236D01*
X178884498Y-48432481D01*
X178855435Y-48440753D01*
X178825513Y-48448052D01*
X178794733Y-48454377D01*
X178763094Y-48459730D01*
X178730596Y-48464109D01*
X178697240Y-48467515D01*
X178663025Y-48469948D01*
X178627951Y-48471408D01*
X178592019Y-48471894D01*
X178548273Y-48471118D01*
X178505694Y-48468791D01*
X178464284Y-48464913D01*
X178424041Y-48459484D01*
X178384966Y-48452503D01*
X178347059Y-48443970D01*
X178310319Y-48433887D01*
X178274748Y-48422252D01*
X178240344Y-48409066D01*
X178207108Y-48394328D01*
X178175039Y-48378039D01*
X178144139Y-48360199D01*
X178114406Y-48340807D01*
X178085841Y-48319864D01*
X178058444Y-48297370D01*
X178032214Y-48273325D01*
X178007459Y-48247931D01*
X177984301Y-48221576D01*
X177962740Y-48194259D01*
X177942776Y-48165980D01*
X177924409Y-48136740D01*
X177907639Y-48106537D01*
X177892466Y-48075373D01*
X177878891Y-48043248D01*
X177866913Y-48010161D01*
X177856531Y-47976112D01*
X177847747Y-47941101D01*
X177840560Y-47905129D01*
X177834970Y-47868195D01*
X177830977Y-47830299D01*
X177828582Y-47791441D01*
X177827783Y-47751622D01*
X177828690Y-47710208D01*
X177829505Y-47698133D01*
X178347288Y-47698133D01*
X178348959Y-47736910D01*
X178353974Y-47773741D01*
X178362331Y-47808626D01*
X178374032Y-47841564D01*
X178389076Y-47872557D01*
X178407463Y-47901602D01*
X178429193Y-47928702D01*
X178454266Y-47953855D01*
X178482613Y-47976352D01*
X178513800Y-47995850D01*
X178547826Y-48012347D01*
X178584692Y-48025846D01*
X178614204Y-48034001D01*
X178645314Y-48040469D01*
X178678020Y-48045249D01*
X178712324Y-48048343D01*
X178748225Y-48049749D01*
X178760547Y-48049842D01*
X178803242Y-48048825D01*
X178844224Y-48045772D01*
X178883493Y-48040685D01*
X178921048Y-48033562D01*
X178956891Y-48024404D01*
X178991021Y-48013212D01*
X179023438Y-47999984D01*
X179054142Y-47984721D01*
X179083132Y-47967423D01*
X179110410Y-47948091D01*
X179127644Y-47934071D01*
X179151738Y-47911682D01*
X179173462Y-47887927D01*
X179192816Y-47862806D01*
X179209801Y-47836321D01*
X179224415Y-47808470D01*
X179236660Y-47779254D01*
X179246534Y-47748672D01*
X179254039Y-47716726D01*
X179259174Y-47683414D01*
X179261939Y-47648737D01*
X179262466Y-47624860D01*
X179262466Y-47346423D01*
X178722445Y-47346423D01*
X178690653Y-47347292D01*
X178660123Y-47349901D01*
X178630855Y-47354248D01*
X178593795Y-47362748D01*
X178558979Y-47374340D01*
X178526407Y-47389024D01*
X178496079Y-47406798D01*
X178467995Y-47427664D01*
X178448404Y-47445341D01*
X178424705Y-47470769D01*
X178404166Y-47497961D01*
X178386786Y-47526915D01*
X178372567Y-47557632D01*
X178361507Y-47590113D01*
X178353607Y-47624356D01*
X178348868Y-47660363D01*
X178347288Y-47698133D01*
X177829505Y-47698133D01*
X177831412Y-47669865D01*
X177835949Y-47630593D01*
X177842300Y-47592391D01*
X177850466Y-47555259D01*
X177860447Y-47519198D01*
X177872242Y-47484208D01*
X177885852Y-47450287D01*
X177901276Y-47417438D01*
X177918516Y-47385658D01*
X177937569Y-47354950D01*
X177958438Y-47325311D01*
X177981121Y-47296744D01*
X178005619Y-47269246D01*
X178031931Y-47242819D01*
X178060058Y-47217463D01*
X178089768Y-47193329D01*
X178120829Y-47170751D01*
X178153241Y-47149731D01*
X178187003Y-47130268D01*
X178222117Y-47112362D01*
X178258582Y-47096013D01*
X178296397Y-47081221D01*
X178335564Y-47067986D01*
X178376082Y-47056308D01*
X178417950Y-47046188D01*
X178461170Y-47037624D01*
X178505740Y-47030617D01*
X178551662Y-47025167D01*
X178598934Y-47021275D01*
X178647558Y-47018939D01*
X178697532Y-47018161D01*
X179262466Y-47018161D01*
X179262466Y-46837909D01*
X179260868Y-46791593D01*
X179256077Y-46748265D01*
X179248092Y-46707925D01*
X179236912Y-46670573D01*
X179222538Y-46636209D01*
X179204969Y-46604833D01*
X179184207Y-46576446D01*
X179160250Y-46551046D01*
X179133099Y-46528635D01*
X179102754Y-46509212D01*
X179069214Y-46492777D01*
X179032480Y-46479330D01*
X178992552Y-46468872D01*
X178949430Y-46461401D01*
X178903114Y-46456919D01*
X178853603Y-46455425D01*
X178819377Y-46456114D01*
X178786490Y-46458181D01*
X178754942Y-46461627D01*
X178724734Y-46466450D01*
X178695866Y-46472652D01*
X178659459Y-46483065D01*
X178625433Y-46495928D01*
X178593788Y-46511241D01*
X178564524Y-46529004D01*
X178557581Y-46533827D01*
X178531798Y-46554447D01*
X178509037Y-46577104D01*
X178489300Y-46601799D01*
X178472584Y-46628532D01*
X178458891Y-46657303D01*
X178448221Y-46688112D01*
X178440573Y-46720959D01*
X178435948Y-46755844D01*
X177928900Y-46755844D01*
X177931905Y-46716022D01*
X177936708Y-46677156D01*
X177943308Y-46639246D01*
X177951706Y-46602291D01*
X177961901Y-46566293D01*
X177973894Y-46531251D01*
X177987684Y-46497165D01*
X178003272Y-46464035D01*
X178020657Y-46431861D01*
X178039839Y-46400642D01*
X178060819Y-46370380D01*
X178083597Y-46341074D01*
X178108172Y-46312723D01*
X178134544Y-46285329D01*
X178162714Y-46258891D01*
X178192682Y-46233408D01*
X178224218Y-46209185D01*
X178257093Y-46186525D01*
X178291308Y-46165428D01*
X178326863Y-46145893D01*
X178363757Y-46127921D01*
X178401990Y-46111512D01*
X178441563Y-46096666D01*
X178482476Y-46083382D01*
X178524728Y-46071661D01*
X178568320Y-46061503D01*
X178613251Y-46052908D01*
X178659522Y-46045876D01*
X178707132Y-46040406D01*
X178756081Y-46036499D01*
X178806371Y-46034155D01*
X178857999Y-46033374D01*
X178912548Y-46034192D01*
G37*
G36*
X181270142Y-48471894D02*
G01*
X181219068Y-48471153D01*
X181169346Y-48468929D01*
X181120974Y-48465222D01*
X181073954Y-48460033D01*
X181028284Y-48453361D01*
X180983965Y-48445207D01*
X180940998Y-48435570D01*
X180899381Y-48424450D01*
X180859115Y-48411848D01*
X180820201Y-48397763D01*
X180782637Y-48382195D01*
X180746424Y-48365145D01*
X180711562Y-48346612D01*
X180678051Y-48326596D01*
X180645891Y-48305098D01*
X180615082Y-48282117D01*
X180585979Y-48257780D01*
X180558754Y-48232395D01*
X180533406Y-48205962D01*
X180509936Y-48178482D01*
X180488343Y-48149954D01*
X180468628Y-48120379D01*
X180450791Y-48089756D01*
X180434831Y-48058086D01*
X180420749Y-48025368D01*
X180408545Y-47991602D01*
X180398218Y-47956789D01*
X180389768Y-47920928D01*
X180383197Y-47884020D01*
X180378503Y-47846064D01*
X180375686Y-47807060D01*
X180374748Y-47767009D01*
X180894252Y-47767009D01*
X180895798Y-47800268D01*
X180900434Y-47831535D01*
X180908162Y-47860810D01*
X180918982Y-47888093D01*
X180936853Y-47919395D01*
X180959554Y-47947584D01*
X180981192Y-47967894D01*
X180993170Y-47977302D01*
X181019297Y-47994304D01*
X181047850Y-48009039D01*
X181078831Y-48021507D01*
X181112239Y-48031707D01*
X181148074Y-48039642D01*
X181186336Y-48045309D01*
X181216625Y-48048071D01*
X181248280Y-48049559D01*
X181270142Y-48049842D01*
X181455522Y-48049842D01*
X181490345Y-48049198D01*
X181523649Y-48047266D01*
X181555432Y-48044046D01*
X181585696Y-48039538D01*
X181614440Y-48033742D01*
X181650401Y-48024011D01*
X181683660Y-48011990D01*
X181714217Y-47997679D01*
X181742072Y-47981078D01*
X181748614Y-47976570D01*
X181772828Y-47957255D01*
X181793814Y-47935949D01*
X181815506Y-47906515D01*
X181832153Y-47873968D01*
X181841839Y-47845689D01*
X181848296Y-47815418D01*
X181851525Y-47783155D01*
X181851928Y-47766277D01*
X181850806Y-47735078D01*
X181846248Y-47699011D01*
X181838184Y-47666199D01*
X181826613Y-47636643D01*
X181811537Y-47610343D01*
X181792954Y-47587298D01*
X181780121Y-47575034D01*
X181756032Y-47556555D01*
X181728186Y-47540044D01*
X181696583Y-47525500D01*
X181668597Y-47515282D01*
X181638206Y-47506323D01*
X181605410Y-47498624D01*
X181570211Y-47492184D01*
X181561035Y-47490771D01*
X180982912Y-47413834D01*
X180948608Y-47408427D01*
X180915307Y-47401916D01*
X180883006Y-47394299D01*
X180851708Y-47385578D01*
X180821411Y-47375752D01*
X180792117Y-47364821D01*
X180763824Y-47352786D01*
X180736532Y-47339645D01*
X180710243Y-47325400D01*
X180684955Y-47310050D01*
X180660669Y-47293595D01*
X180626118Y-47266841D01*
X180593822Y-47237601D01*
X180563779Y-47205876D01*
X180554266Y-47194748D01*
X180527553Y-47159874D01*
X180503467Y-47123118D01*
X180488870Y-47097570D01*
X180475440Y-47071186D01*
X180463179Y-47043966D01*
X180452085Y-47015911D01*
X180442159Y-46987020D01*
X180433400Y-46957293D01*
X180425810Y-46926730D01*
X180419387Y-46895331D01*
X180414132Y-46863097D01*
X180410044Y-46830027D01*
X180407125Y-46796121D01*
X180405373Y-46761379D01*
X180404789Y-46725802D01*
X180405645Y-46684469D01*
X180408213Y-46644366D01*
X180412492Y-46605494D01*
X180418482Y-46567853D01*
X180426184Y-46531443D01*
X180435598Y-46496263D01*
X180446724Y-46462315D01*
X180459561Y-46429596D01*
X180474110Y-46398109D01*
X180490370Y-46367853D01*
X180508342Y-46338827D01*
X180528025Y-46311032D01*
X180549420Y-46284468D01*
X180572527Y-46259134D01*
X180597345Y-46235031D01*
X180623875Y-46212159D01*
X180652108Y-46190509D01*
X180681852Y-46170256D01*
X180713108Y-46151400D01*
X180745875Y-46133941D01*
X180780152Y-46117878D01*
X180815942Y-46103212D01*
X180853242Y-46089942D01*
X180892054Y-46078070D01*
X180932377Y-46067594D01*
X180974211Y-46058515D01*
X181017557Y-46050833D01*
X181062413Y-46044548D01*
X181108781Y-46039659D01*
X181156660Y-46036167D01*
X181206051Y-46034072D01*
X181256953Y-46033374D01*
X181451126Y-46033374D01*
X181499074Y-46034083D01*
X181545831Y-46036213D01*
X181591397Y-46039762D01*
X181635773Y-46044731D01*
X181678959Y-46051119D01*
X181720953Y-46058927D01*
X181761757Y-46068155D01*
X181801370Y-46078803D01*
X181839792Y-46090870D01*
X181877024Y-46104357D01*
X181913065Y-46119263D01*
X181947916Y-46135589D01*
X181981575Y-46153335D01*
X182014044Y-46172500D01*
X182045323Y-46193085D01*
X182075410Y-46215090D01*
X182104104Y-46238280D01*
X182131018Y-46262420D01*
X182156151Y-46287510D01*
X182179504Y-46313551D01*
X182201076Y-46340541D01*
X182220869Y-46368482D01*
X182238880Y-46397374D01*
X182255112Y-46427215D01*
X182269563Y-46458007D01*
X182282235Y-46489749D01*
X182293125Y-46522441D01*
X182302236Y-46556084D01*
X182309566Y-46590677D01*
X182315116Y-46626220D01*
X182318885Y-46662713D01*
X182320875Y-46700157D01*
X181797706Y-46700157D01*
X181794168Y-46666443D01*
X181786300Y-46634912D01*
X181774104Y-46605564D01*
X181757578Y-46578398D01*
X181736723Y-46553414D01*
X181711539Y-46530613D01*
X181700253Y-46522103D01*
X181669635Y-46502894D01*
X181642925Y-46489871D01*
X181614245Y-46478932D01*
X181583596Y-46470076D01*
X181550979Y-46463304D01*
X181516392Y-46458616D01*
X181479835Y-46456011D01*
X181451126Y-46455425D01*
X181256953Y-46455425D01*
X181226056Y-46456050D01*
X181196563Y-46457924D01*
X181159422Y-46462366D01*
X181124778Y-46469029D01*
X181092630Y-46477914D01*
X181062977Y-46489019D01*
X181035820Y-46502346D01*
X181005384Y-46522127D01*
X180999765Y-46526500D01*
X180974223Y-46549680D01*
X180953011Y-46575258D01*
X180936127Y-46603232D01*
X180923573Y-46633604D01*
X180915347Y-46666373D01*
X180911451Y-46701539D01*
X180911105Y-46716277D01*
X180912697Y-46748366D01*
X180917473Y-46777771D01*
X180927408Y-46809516D01*
X180941928Y-46837397D01*
X180961033Y-46861414D01*
X180976318Y-46875279D01*
X181002936Y-46893147D01*
X181033883Y-46908286D01*
X181062977Y-46918815D01*
X181095077Y-46927448D01*
X181130182Y-46934185D01*
X181160430Y-46938210D01*
X181168293Y-46939026D01*
X181712710Y-47015963D01*
X181752208Y-47021409D01*
X181790471Y-47028041D01*
X181827496Y-47035858D01*
X181863286Y-47044859D01*
X181897838Y-47055046D01*
X181931155Y-47066418D01*
X181963234Y-47078974D01*
X181994078Y-47092716D01*
X182023684Y-47107642D01*
X182052055Y-47123754D01*
X182079189Y-47141050D01*
X182105086Y-47159532D01*
X182129747Y-47179198D01*
X182153171Y-47200049D01*
X182175359Y-47222085D01*
X182196311Y-47245307D01*
X182216008Y-47269630D01*
X182234435Y-47294972D01*
X182251592Y-47321333D01*
X182267477Y-47348713D01*
X182282091Y-47377112D01*
X182295435Y-47406530D01*
X182307508Y-47436967D01*
X182318310Y-47468422D01*
X182327841Y-47500897D01*
X182336102Y-47534391D01*
X182343091Y-47568904D01*
X182348810Y-47604435D01*
X182353258Y-47640986D01*
X182356435Y-47678555D01*
X182358341Y-47717144D01*
X182358976Y-47756751D01*
X182358078Y-47799003D01*
X182355381Y-47840030D01*
X182350888Y-47879832D01*
X182344597Y-47918409D01*
X182336508Y-47955761D01*
X182326622Y-47991888D01*
X182314938Y-48026790D01*
X182301457Y-48060467D01*
X182286179Y-48092919D01*
X182269103Y-48124146D01*
X182250229Y-48154148D01*
X182229558Y-48182924D01*
X182207090Y-48210476D01*
X182182824Y-48236803D01*
X182156760Y-48261904D01*
X182128900Y-48285781D01*
X182099307Y-48308318D01*
X182068049Y-48329401D01*
X182035125Y-48349030D01*
X182000535Y-48367206D01*
X181964279Y-48383927D01*
X181926357Y-48399194D01*
X181886770Y-48413007D01*
X181845517Y-48425366D01*
X181802598Y-48436271D01*
X181758013Y-48445722D01*
X181711762Y-48453719D01*
X181663846Y-48460262D01*
X181614264Y-48465351D01*
X181563016Y-48468986D01*
X181510102Y-48471167D01*
X181455522Y-48471894D01*
X181270142Y-48471894D01*
G37*
G36*
X184116792Y-48425000D02*
G01*
X184076647Y-48424252D01*
X184037543Y-48422011D01*
X183999481Y-48418276D01*
X183962461Y-48413047D01*
X183926483Y-48406324D01*
X183891547Y-48398106D01*
X183857652Y-48388395D01*
X183824800Y-48377189D01*
X183792989Y-48364489D01*
X183762220Y-48350296D01*
X183732493Y-48334608D01*
X183703808Y-48317426D01*
X183676165Y-48298750D01*
X183649563Y-48278580D01*
X183624004Y-48256916D01*
X183599486Y-48233757D01*
X183576239Y-48209323D01*
X183554492Y-48183829D01*
X183534244Y-48157276D01*
X183515497Y-48129664D01*
X183498249Y-48100993D01*
X183482501Y-48071263D01*
X183468253Y-48040474D01*
X183455505Y-48008627D01*
X183444256Y-47975720D01*
X183434507Y-47941754D01*
X183426258Y-47906729D01*
X183419509Y-47870645D01*
X183414260Y-47833502D01*
X183410511Y-47795299D01*
X183408261Y-47756038D01*
X183407511Y-47715718D01*
X183407511Y-46545551D01*
X182766373Y-46545551D01*
X182766373Y-46080268D01*
X183407511Y-46080268D01*
X183407511Y-45423743D01*
X183939472Y-45423743D01*
X183939472Y-46080268D01*
X184863443Y-46080268D01*
X184863443Y-46545551D01*
X183939472Y-46545551D01*
X183939472Y-47719382D01*
X183940849Y-47751231D01*
X183944982Y-47781292D01*
X183953577Y-47815003D01*
X183966139Y-47846138D01*
X183982669Y-47874697D01*
X183995892Y-47892306D01*
X184018896Y-47915215D01*
X184045042Y-47933384D01*
X184074331Y-47946814D01*
X184106763Y-47955504D01*
X184136190Y-47959124D01*
X184154894Y-47959717D01*
X184842926Y-47959717D01*
X184842926Y-48425000D01*
X184116792Y-48425000D01*
G37*
G36*
X186442641Y-46033829D02*
G01*
X186478136Y-46035194D01*
X186513052Y-46037469D01*
X186547390Y-46040655D01*
X186581150Y-46044751D01*
X186614332Y-46049757D01*
X186646935Y-46055673D01*
X186678961Y-46062500D01*
X186710408Y-46070236D01*
X186741277Y-46078883D01*
X186771568Y-46088440D01*
X186801281Y-46098907D01*
X186830415Y-46110284D01*
X186858971Y-46122572D01*
X186886950Y-46135769D01*
X186914350Y-46149877D01*
X186941172Y-46164712D01*
X186967232Y-46180274D01*
X186992531Y-46196563D01*
X187017069Y-46213579D01*
X187040846Y-46231322D01*
X187063861Y-46249792D01*
X187086114Y-46268989D01*
X187118068Y-46299147D01*
X187148308Y-46330941D01*
X187176835Y-46364371D01*
X187194901Y-46387567D01*
X187212206Y-46411489D01*
X187228750Y-46436139D01*
X187244532Y-46461515D01*
X187252138Y-46474476D01*
X187266778Y-46500857D01*
X187280474Y-46527794D01*
X187293225Y-46555285D01*
X187305031Y-46583332D01*
X187315894Y-46611934D01*
X187325811Y-46641092D01*
X187334784Y-46670804D01*
X187342813Y-46701072D01*
X187349897Y-46731896D01*
X187356036Y-46763274D01*
X187361231Y-46795208D01*
X187365482Y-46827697D01*
X187368787Y-46860741D01*
X187371149Y-46894341D01*
X187372566Y-46928496D01*
X187373038Y-46963206D01*
X187373038Y-47393318D01*
X185937623Y-47393318D01*
X185937623Y-47547923D01*
X185938698Y-47589534D01*
X185941925Y-47629188D01*
X185947302Y-47666883D01*
X185954830Y-47702621D01*
X185964510Y-47736401D01*
X185976340Y-47768223D01*
X185990321Y-47798087D01*
X186006453Y-47825994D01*
X186024736Y-47851943D01*
X186045171Y-47875934D01*
X186059988Y-47890840D01*
X186083827Y-47911530D01*
X186109456Y-47930184D01*
X186136875Y-47946804D01*
X186166085Y-47961388D01*
X186197085Y-47973938D01*
X186229875Y-47984452D01*
X186264456Y-47992932D01*
X186300827Y-47999376D01*
X186338988Y-48003785D01*
X186378940Y-48006159D01*
X186406569Y-48006612D01*
X186436918Y-48006129D01*
X186466418Y-48004680D01*
X186504428Y-48001245D01*
X186540927Y-47996093D01*
X186575915Y-47989224D01*
X186609392Y-47980637D01*
X186641357Y-47970333D01*
X186671811Y-47958312D01*
X186686471Y-47951657D01*
X186714109Y-47937117D01*
X186738770Y-47920974D01*
X186765410Y-47898541D01*
X186787399Y-47873604D01*
X186804737Y-47846163D01*
X186817423Y-47816217D01*
X186824224Y-47790457D01*
X187347392Y-47790457D01*
X187339733Y-47828716D01*
X187330494Y-47866008D01*
X187319675Y-47902332D01*
X187307275Y-47937689D01*
X187293296Y-47972079D01*
X187277737Y-48005501D01*
X187260598Y-48037956D01*
X187241879Y-48069443D01*
X187221581Y-48099963D01*
X187199702Y-48129515D01*
X187176243Y-48158100D01*
X187151204Y-48185718D01*
X187124586Y-48212368D01*
X187096387Y-48238051D01*
X187066608Y-48262766D01*
X187035250Y-48286514D01*
X187002655Y-48308962D01*
X186969167Y-48329962D01*
X186934786Y-48349514D01*
X186899512Y-48367618D01*
X186863345Y-48384273D01*
X186826285Y-48399480D01*
X186788332Y-48413239D01*
X186749486Y-48425549D01*
X186709747Y-48436411D01*
X186669115Y-48445825D01*
X186627590Y-48453791D01*
X186585171Y-48460308D01*
X186541860Y-48465377D01*
X186497656Y-48468998D01*
X186452559Y-48471170D01*
X186406569Y-48471894D01*
X186369952Y-48471445D01*
X186333926Y-48470097D01*
X186298489Y-48467850D01*
X186263641Y-48464704D01*
X186229383Y-48460660D01*
X186195715Y-48455717D01*
X186162636Y-48449875D01*
X186130147Y-48443135D01*
X186098248Y-48435495D01*
X186066938Y-48426957D01*
X186036218Y-48417521D01*
X186006087Y-48407185D01*
X185976546Y-48395951D01*
X185947595Y-48383818D01*
X185919233Y-48370786D01*
X185891461Y-48356856D01*
X185864459Y-48342009D01*
X185838223Y-48326413D01*
X185812755Y-48310067D01*
X185788054Y-48292971D01*
X185764120Y-48275125D01*
X185740954Y-48256529D01*
X185718554Y-48237183D01*
X185696921Y-48217088D01*
X185676056Y-48196242D01*
X185655957Y-48174647D01*
X185636626Y-48152301D01*
X185618061Y-48129206D01*
X185600264Y-48105361D01*
X185583234Y-48080766D01*
X185566971Y-48055421D01*
X185551475Y-48029326D01*
X185536923Y-48002564D01*
X185523310Y-47975219D01*
X185510636Y-47947289D01*
X185498901Y-47918776D01*
X185488105Y-47889678D01*
X185478248Y-47859997D01*
X185469329Y-47829732D01*
X185461349Y-47798883D01*
X185454308Y-47767450D01*
X185448206Y-47735433D01*
X185443042Y-47702833D01*
X185438818Y-47669648D01*
X185435532Y-47635879D01*
X185433185Y-47601527D01*
X185431777Y-47566591D01*
X185431307Y-47531071D01*
X185431307Y-47065055D01*
X185937623Y-47065055D01*
X186866722Y-47065055D01*
X186866722Y-46980792D01*
X186866259Y-46949822D01*
X186864868Y-46919746D01*
X186861042Y-46876306D01*
X186855130Y-46834876D01*
X186847132Y-46795454D01*
X186837047Y-46758042D01*
X186824875Y-46722639D01*
X186810617Y-46689246D01*
X186794272Y-46657861D01*
X186775841Y-46628487D01*
X186755323Y-46601121D01*
X186748020Y-46592445D01*
X186724974Y-46567958D01*
X186700072Y-46545880D01*
X186673316Y-46526210D01*
X186644706Y-46508949D01*
X186614240Y-46494096D01*
X186581920Y-46481652D01*
X186547745Y-46471616D01*
X186511715Y-46463989D01*
X186473831Y-46458770D01*
X186434092Y-46455960D01*
X186406569Y-46455425D01*
X186364016Y-46456642D01*
X186323459Y-46460294D01*
X186284898Y-46466380D01*
X186248334Y-46474900D01*
X186213766Y-46485854D01*
X186181195Y-46499243D01*
X186150620Y-46515066D01*
X186122041Y-46533323D01*
X186095459Y-46554015D01*
X186070873Y-46577141D01*
X186055592Y-46593911D01*
X186034509Y-46620725D01*
X186015501Y-46649510D01*
X185998566Y-46680265D01*
X185983704Y-46712991D01*
X185970917Y-46747687D01*
X185960203Y-46784354D01*
X185951562Y-46822992D01*
X185944996Y-46863601D01*
X185940503Y-46906180D01*
X185938659Y-46935661D01*
X185937738Y-46966017D01*
X185937623Y-46981524D01*
X185937623Y-47065055D01*
X185431307Y-47065055D01*
X185431307Y-46974197D01*
X185431777Y-46938677D01*
X185433185Y-46903741D01*
X185435532Y-46869388D01*
X185438818Y-46835620D01*
X185443042Y-46802435D01*
X185448206Y-46769834D01*
X185454308Y-46737818D01*
X185461349Y-46706385D01*
X185469329Y-46675536D01*
X185478248Y-46645271D01*
X185488105Y-46615589D01*
X185498901Y-46586492D01*
X185510636Y-46557979D01*
X185523310Y-46530049D01*
X185536923Y-46502703D01*
X185551475Y-46475942D01*
X185566971Y-46449850D01*
X185583234Y-46424513D01*
X185600264Y-46399932D01*
X185618061Y-46376107D01*
X185636626Y-46353038D01*
X185655957Y-46330724D01*
X185676056Y-46309166D01*
X185696921Y-46288363D01*
X185718554Y-46268316D01*
X185740954Y-46249025D01*
X185764120Y-46230489D01*
X185788054Y-46212709D01*
X185812755Y-46195684D01*
X185838223Y-46179415D01*
X185864459Y-46163902D01*
X185891461Y-46149145D01*
X185919233Y-46135125D01*
X185947595Y-46122011D01*
X185976546Y-46109801D01*
X186006087Y-46098495D01*
X186036218Y-46088093D01*
X186066938Y-46078597D01*
X186098248Y-46070004D01*
X186130147Y-46062316D01*
X186162636Y-46055533D01*
X186195715Y-46049654D01*
X186229383Y-46044679D01*
X186263641Y-46040609D01*
X186298489Y-46037444D01*
X186333926Y-46035182D01*
X186369952Y-46033826D01*
X186406569Y-46033374D01*
X186442641Y-46033829D01*
G37*
G36*
X188063268Y-48425000D02*
G01*
X188063268Y-46080268D01*
X188577644Y-46080268D01*
X188577644Y-46544818D01*
X188583440Y-46515709D01*
X188593947Y-46473484D01*
X188606632Y-46432985D01*
X188621493Y-46394212D01*
X188638532Y-46357165D01*
X188657746Y-46321844D01*
X188679138Y-46288249D01*
X188702706Y-46256379D01*
X188728451Y-46226236D01*
X188756373Y-46197818D01*
X188786471Y-46171127D01*
X188818665Y-46146509D01*
X188852597Y-46124312D01*
X188888268Y-46104537D01*
X188925678Y-46087183D01*
X188964827Y-46072251D01*
X189005714Y-46059740D01*
X189048341Y-46049651D01*
X189077724Y-46044270D01*
X189107881Y-46039965D01*
X189138810Y-46036737D01*
X189170512Y-46034584D01*
X189202987Y-46033508D01*
X189219514Y-46033374D01*
X189263231Y-46034278D01*
X189305724Y-46036991D01*
X189346991Y-46041514D01*
X189387034Y-46047845D01*
X189425851Y-46055985D01*
X189463444Y-46065934D01*
X189499811Y-46077692D01*
X189534953Y-46091259D01*
X189568871Y-46106635D01*
X189601563Y-46123820D01*
X189633030Y-46142813D01*
X189663272Y-46163616D01*
X189692290Y-46186228D01*
X189720082Y-46210648D01*
X189746649Y-46236877D01*
X189771991Y-46264916D01*
X189796037Y-46294485D01*
X189818531Y-46325492D01*
X189839474Y-46357935D01*
X189858865Y-46391815D01*
X189876705Y-46427132D01*
X189892994Y-46463886D01*
X189907732Y-46502077D01*
X189920918Y-46541704D01*
X189932553Y-46582768D01*
X189942637Y-46625269D01*
X189951169Y-46669207D01*
X189958150Y-46714582D01*
X189963580Y-46761394D01*
X189967458Y-46809642D01*
X189969785Y-46859327D01*
X189970560Y-46910450D01*
X189970560Y-47133199D01*
X189442996Y-47133199D01*
X189442996Y-46937561D01*
X189442030Y-46898463D01*
X189439132Y-46861131D01*
X189434302Y-46825563D01*
X189427540Y-46791759D01*
X189418846Y-46759720D01*
X189408220Y-46729446D01*
X189395662Y-46700936D01*
X189381172Y-46674190D01*
X189364750Y-46649210D01*
X189346396Y-46625994D01*
X189333087Y-46611496D01*
X189311792Y-46591331D01*
X189280834Y-46567528D01*
X189255692Y-46551991D01*
X189228902Y-46538437D01*
X189200463Y-46526866D01*
X189170375Y-46517279D01*
X189138639Y-46509676D01*
X189105254Y-46504056D01*
X189070220Y-46500419D01*
X189033538Y-46498766D01*
X189020944Y-46498656D01*
X188982266Y-46499783D01*
X188945364Y-46503164D01*
X188910241Y-46508799D01*
X188876894Y-46516688D01*
X188845326Y-46526831D01*
X188815534Y-46539228D01*
X188787520Y-46553879D01*
X188761284Y-46570784D01*
X188736825Y-46589943D01*
X188714143Y-46611356D01*
X188700009Y-46626884D01*
X188680498Y-46651729D01*
X188662906Y-46678455D01*
X188647233Y-46707062D01*
X188633480Y-46737549D01*
X188621645Y-46769916D01*
X188611730Y-46804164D01*
X188603733Y-46840292D01*
X188597656Y-46878301D01*
X188593498Y-46918190D01*
X188591259Y-46959960D01*
X188590833Y-46988852D01*
X188590833Y-48425000D01*
X188063268Y-48425000D01*
G37*
G36*
X191449939Y-48471894D02*
G01*
X191411225Y-48471462D01*
X191373117Y-48470165D01*
X191335617Y-48468004D01*
X191298723Y-48464979D01*
X191262435Y-48461089D01*
X191226755Y-48456335D01*
X191191681Y-48450717D01*
X191157214Y-48444234D01*
X191123354Y-48436886D01*
X191090101Y-48428675D01*
X191057455Y-48419598D01*
X191025415Y-48409658D01*
X190993982Y-48398853D01*
X190963156Y-48387184D01*
X190932936Y-48374650D01*
X190903324Y-48361252D01*
X190874516Y-48347047D01*
X190846526Y-48332092D01*
X190819355Y-48316387D01*
X190793002Y-48299932D01*
X190767469Y-48282727D01*
X190742753Y-48264772D01*
X190718857Y-48246068D01*
X190695779Y-48226613D01*
X190673519Y-48206409D01*
X190652078Y-48185455D01*
X190631456Y-48163750D01*
X190611652Y-48141296D01*
X190592667Y-48118092D01*
X190574501Y-48094138D01*
X190557153Y-48069434D01*
X190540623Y-48043981D01*
X190525007Y-48017846D01*
X190510398Y-47991098D01*
X190496797Y-47963738D01*
X190484203Y-47935766D01*
X190472617Y-47907181D01*
X190462038Y-47877983D01*
X190452467Y-47848173D01*
X190443903Y-47817751D01*
X190436347Y-47786716D01*
X190429798Y-47755068D01*
X190424257Y-47722808D01*
X190419723Y-47689935D01*
X190416197Y-47656450D01*
X190413678Y-47622353D01*
X190412167Y-47587642D01*
X190411663Y-47552320D01*
X190931168Y-47552320D01*
X190932411Y-47590591D01*
X190936139Y-47627367D01*
X190942354Y-47662650D01*
X190951054Y-47696438D01*
X190962241Y-47728733D01*
X190975913Y-47759533D01*
X190992071Y-47788839D01*
X191010714Y-47816652D01*
X191031844Y-47842970D01*
X191055460Y-47867794D01*
X191072584Y-47883513D01*
X191099931Y-47905512D01*
X191128938Y-47925347D01*
X191159608Y-47943019D01*
X191191939Y-47958526D01*
X191225931Y-47971870D01*
X191261585Y-47983050D01*
X191298901Y-47992066D01*
X191337878Y-47998918D01*
X191378516Y-48003606D01*
X191420816Y-48006131D01*
X191449939Y-48006612D01*
X191491829Y-48005549D01*
X191532045Y-48002361D01*
X191570586Y-47997048D01*
X191607453Y-47989610D01*
X191642646Y-47980047D01*
X191676164Y-47968358D01*
X191708007Y-47954544D01*
X191738177Y-47938605D01*
X191766671Y-47920541D01*
X191793492Y-47900352D01*
X191810442Y-47885711D01*
X191834274Y-47862184D01*
X191855762Y-47837214D01*
X191874906Y-47810801D01*
X191891706Y-47782946D01*
X191906162Y-47753648D01*
X191918273Y-47722908D01*
X191928040Y-47690725D01*
X191935464Y-47657100D01*
X191940543Y-47622032D01*
X191943278Y-47585522D01*
X191943798Y-47560380D01*
X191942447Y-47522667D01*
X191938395Y-47486099D01*
X191931640Y-47450677D01*
X191922183Y-47416399D01*
X191910024Y-47383266D01*
X191895164Y-47351277D01*
X191877601Y-47320434D01*
X191857336Y-47290736D01*
X191834565Y-47262594D01*
X191809480Y-47236789D01*
X191782083Y-47213318D01*
X191752373Y-47192184D01*
X191720351Y-47173385D01*
X191686015Y-47156921D01*
X191658746Y-47146106D01*
X191630176Y-47136605D01*
X191610407Y-47131001D01*
X191197148Y-47024755D01*
X191156018Y-47013638D01*
X191115975Y-47001354D01*
X191077021Y-46987901D01*
X191039153Y-46973281D01*
X191002374Y-46957493D01*
X190966682Y-46940537D01*
X190932078Y-46922414D01*
X190898561Y-46903122D01*
X190866132Y-46882663D01*
X190834791Y-46861036D01*
X190804537Y-46838241D01*
X190775371Y-46814279D01*
X190747293Y-46789149D01*
X190720302Y-46762851D01*
X190694399Y-46735385D01*
X190669584Y-46706751D01*
X190646070Y-46677184D01*
X190624074Y-46646919D01*
X190603595Y-46615956D01*
X190584633Y-46584294D01*
X190567188Y-46551934D01*
X190551259Y-46518875D01*
X190536848Y-46485118D01*
X190523954Y-46450662D01*
X190512576Y-46415509D01*
X190502716Y-46379656D01*
X190494373Y-46343106D01*
X190487546Y-46305857D01*
X190482237Y-46267910D01*
X190478444Y-46229264D01*
X190476169Y-46189920D01*
X190475410Y-46149877D01*
X190476415Y-46101131D01*
X190479429Y-46053627D01*
X190484452Y-46007365D01*
X190491485Y-45962345D01*
X190500526Y-45918567D01*
X190511577Y-45876032D01*
X190524638Y-45834738D01*
X190539707Y-45794687D01*
X190556786Y-45755878D01*
X190575874Y-45718312D01*
X190596972Y-45681987D01*
X190620079Y-45646905D01*
X190645195Y-45613065D01*
X190672320Y-45580467D01*
X190701454Y-45549112D01*
X190732598Y-45518998D01*
X190765425Y-45490427D01*
X190799608Y-45463700D01*
X190835149Y-45438816D01*
X190872046Y-45415775D01*
X190910299Y-45394577D01*
X190949909Y-45375223D01*
X190990876Y-45357712D01*
X191033200Y-45342044D01*
X191076880Y-45328220D01*
X191121917Y-45316238D01*
X191168311Y-45306100D01*
X191216062Y-45297806D01*
X191265169Y-45291354D01*
X191315633Y-45286746D01*
X191367453Y-45283981D01*
X191420630Y-45283060D01*
X191456706Y-45283477D01*
X191492209Y-45284731D01*
X191527139Y-45286820D01*
X191561497Y-45289746D01*
X191595283Y-45293507D01*
X191628496Y-45298103D01*
X191661137Y-45303536D01*
X191693205Y-45309804D01*
X191724701Y-45316908D01*
X191755625Y-45324848D01*
X191785976Y-45333624D01*
X191815754Y-45343235D01*
X191844960Y-45353682D01*
X191873594Y-45364965D01*
X191901655Y-45377083D01*
X191929144Y-45390038D01*
X191955957Y-45403665D01*
X191981992Y-45417985D01*
X192007248Y-45432997D01*
X192043673Y-45456814D01*
X192078346Y-45482190D01*
X192111267Y-45509124D01*
X192142437Y-45537617D01*
X192171854Y-45567668D01*
X192199521Y-45599278D01*
X192225435Y-45632446D01*
X192249598Y-45667172D01*
X192264734Y-45691189D01*
X192285816Y-45728176D01*
X192304825Y-45766323D01*
X192321760Y-45805628D01*
X192336621Y-45846093D01*
X192349409Y-45887717D01*
X192356782Y-45916110D01*
X192363233Y-45945018D01*
X192368763Y-45974442D01*
X192373371Y-46004381D01*
X192377058Y-46034835D01*
X192379823Y-46065804D01*
X192381666Y-46097288D01*
X192382588Y-46129288D01*
X192382703Y-46145481D01*
X191868327Y-46145481D01*
X191867245Y-46112826D01*
X191864000Y-46081356D01*
X191858590Y-46051071D01*
X191851017Y-46021970D01*
X191841279Y-45994055D01*
X191824930Y-45958678D01*
X191804735Y-45925408D01*
X191787063Y-45901837D01*
X191767228Y-45879452D01*
X191745229Y-45858251D01*
X191721583Y-45838609D01*
X191696534Y-45820899D01*
X191670081Y-45805121D01*
X191642223Y-45791275D01*
X191612962Y-45779361D01*
X191582297Y-45769379D01*
X191550228Y-45761329D01*
X191516755Y-45755211D01*
X191481878Y-45751025D01*
X191445597Y-45748771D01*
X191420630Y-45748342D01*
X191384120Y-45749295D01*
X191349052Y-45752155D01*
X191315426Y-45756920D01*
X191283244Y-45763592D01*
X191252503Y-45772170D01*
X191223206Y-45782654D01*
X191195351Y-45795045D01*
X191168938Y-45809342D01*
X191143968Y-45825545D01*
X191120441Y-45843654D01*
X191105557Y-45856786D01*
X191084867Y-45877568D01*
X191060447Y-45907100D01*
X191039644Y-45938716D01*
X191022460Y-45972416D01*
X191008893Y-46008200D01*
X190998944Y-46046067D01*
X190993856Y-46075835D01*
X190990803Y-46106774D01*
X190989786Y-46138886D01*
X190991068Y-46174172D01*
X190994915Y-46207855D01*
X191001326Y-46239934D01*
X191010302Y-46270411D01*
X191021843Y-46299285D01*
X191035948Y-46326557D01*
X191052617Y-46352225D01*
X191071851Y-46376290D01*
X191093570Y-46398765D01*
X191117326Y-46419659D01*
X191143121Y-46438973D01*
X191170953Y-46456707D01*
X191200823Y-46472862D01*
X191232731Y-46487436D01*
X191266677Y-46500431D01*
X191302661Y-46511845D01*
X191728376Y-46618091D01*
X191770580Y-46629377D01*
X191811644Y-46641985D01*
X191851569Y-46655915D01*
X191890355Y-46671168D01*
X191928002Y-46687743D01*
X191964509Y-46705641D01*
X191999878Y-46724860D01*
X192034107Y-46745403D01*
X192067197Y-46767267D01*
X192099148Y-46790454D01*
X192129960Y-46814963D01*
X192159633Y-46840795D01*
X192188166Y-46867948D01*
X192215561Y-46896425D01*
X192241816Y-46926223D01*
X192266932Y-46957344D01*
X192290711Y-46989510D01*
X192312956Y-47022443D01*
X192333667Y-47056142D01*
X192352844Y-47090609D01*
X192370487Y-47125843D01*
X192386595Y-47161844D01*
X192401170Y-47198612D01*
X192414210Y-47236147D01*
X192425716Y-47274450D01*
X192435688Y-47313519D01*
X192444126Y-47353355D01*
X192451030Y-47393959D01*
X192456399Y-47435329D01*
X192460235Y-47477467D01*
X192462536Y-47520372D01*
X192463303Y-47564043D01*
X192462816Y-47598201D01*
X192461357Y-47631798D01*
X192458924Y-47664834D01*
X192455518Y-47697308D01*
X192451139Y-47729222D01*
X192445786Y-47760575D01*
X192439461Y-47791367D01*
X192432162Y-47821598D01*
X192423890Y-47851267D01*
X192414645Y-47880376D01*
X192404427Y-47908924D01*
X192393236Y-47936911D01*
X192381071Y-47964337D01*
X192367934Y-47991201D01*
X192353823Y-48017505D01*
X192338739Y-48043248D01*
X192322765Y-48068355D01*
X192305984Y-48092753D01*
X192288396Y-48116441D01*
X192270000Y-48139419D01*
X192250797Y-48161687D01*
X192230788Y-48183245D01*
X192209971Y-48204093D01*
X192188347Y-48224232D01*
X192165915Y-48243661D01*
X192142677Y-48262380D01*
X192118631Y-48280389D01*
X192093779Y-48297688D01*
X192068119Y-48314277D01*
X192041652Y-48330157D01*
X192014378Y-48345327D01*
X191986297Y-48359787D01*
X191957497Y-48373362D01*
X191928068Y-48386062D01*
X191898009Y-48397886D01*
X191867320Y-48408834D01*
X191836001Y-48418906D01*
X191804053Y-48428102D01*
X191771476Y-48436423D01*
X191738268Y-48443867D01*
X191704431Y-48450436D01*
X191669964Y-48456129D01*
X191634868Y-48460946D01*
X191599141Y-48464887D01*
X191562785Y-48467953D01*
X191525800Y-48470142D01*
X191488184Y-48471456D01*
X191449939Y-48471894D01*
G37*
G36*
X193014315Y-48425000D02*
G01*
X193014315Y-45329954D01*
X193541879Y-45329954D01*
X193541879Y-46103715D01*
X193528690Y-46541887D01*
X193534478Y-46512784D01*
X193544941Y-46470589D01*
X193557541Y-46430146D01*
X193572280Y-46391455D01*
X193589158Y-46354515D01*
X193608173Y-46319327D01*
X193629326Y-46285890D01*
X193652617Y-46254205D01*
X193678047Y-46224272D01*
X193705614Y-46196091D01*
X193735320Y-46169661D01*
X193767011Y-46145305D01*
X193800261Y-46123345D01*
X193835069Y-46103780D01*
X193871436Y-46086611D01*
X193909361Y-46071837D01*
X193948844Y-46059460D01*
X193989886Y-46049478D01*
X194032487Y-46041892D01*
X194061753Y-46038165D01*
X194091712Y-46035503D01*
X194122364Y-46033906D01*
X194153708Y-46033374D01*
X194195854Y-46034275D01*
X194236930Y-46036980D01*
X194276935Y-46041488D01*
X194315870Y-46047799D01*
X194353734Y-46055914D01*
X194390528Y-46065831D01*
X194426251Y-46077552D01*
X194460904Y-46091076D01*
X194494487Y-46106403D01*
X194526999Y-46123533D01*
X194558440Y-46142467D01*
X194588811Y-46163204D01*
X194618112Y-46185744D01*
X194646342Y-46210087D01*
X194673501Y-46236233D01*
X194699590Y-46264183D01*
X194724435Y-46293564D01*
X194747676Y-46324187D01*
X194769314Y-46356052D01*
X194789350Y-46389159D01*
X194807782Y-46423509D01*
X194824612Y-46459100D01*
X194839839Y-46495934D01*
X194853463Y-46534010D01*
X194865485Y-46573329D01*
X194875903Y-46613889D01*
X194884719Y-46655692D01*
X194891932Y-46698737D01*
X194897542Y-46743024D01*
X194901549Y-46788553D01*
X194903953Y-46835325D01*
X194904754Y-46883339D01*
X194904754Y-48425000D01*
X194377190Y-48425000D01*
X194377190Y-46950750D01*
X194376205Y-46910828D01*
X194373249Y-46872671D01*
X194368322Y-46836279D01*
X194361425Y-46801651D01*
X194352557Y-46768788D01*
X194341718Y-46737689D01*
X194328909Y-46708355D01*
X194314129Y-46680785D01*
X194297379Y-46654980D01*
X194278658Y-46630939D01*
X194265082Y-46615893D01*
X194243511Y-46594941D01*
X194220561Y-46576051D01*
X194196232Y-46559221D01*
X194170526Y-46544452D01*
X194143442Y-46531743D01*
X194114979Y-46521096D01*
X194085138Y-46512509D01*
X194053919Y-46505983D01*
X194021322Y-46501518D01*
X193987347Y-46499114D01*
X193963931Y-46498656D01*
X193927459Y-46499706D01*
X193892507Y-46502855D01*
X193859075Y-46508104D01*
X193827163Y-46515452D01*
X193796770Y-46524899D01*
X193767898Y-46536446D01*
X193740545Y-46550092D01*
X193714712Y-46565838D01*
X193690399Y-46583683D01*
X193667605Y-46603628D01*
X193653254Y-46618091D01*
X193633350Y-46641380D01*
X193615404Y-46666460D01*
X193599416Y-46693329D01*
X193585385Y-46721990D01*
X193573312Y-46752440D01*
X193563197Y-46784681D01*
X193555040Y-46818712D01*
X193548840Y-46854533D01*
X193544599Y-46892145D01*
X193542314Y-46931547D01*
X193541879Y-46958810D01*
X193541879Y-48425000D01*
X193014315Y-48425000D01*
G37*
G36*
X196536135Y-46034192D02*
G01*
X196589137Y-46036648D01*
X196640594Y-46040741D01*
X196690506Y-46046471D01*
X196738871Y-46053838D01*
X196785692Y-46062843D01*
X196830966Y-46073485D01*
X196874695Y-46085764D01*
X196916879Y-46099680D01*
X196957516Y-46115233D01*
X196996609Y-46132424D01*
X197034155Y-46151251D01*
X197070156Y-46171716D01*
X197104612Y-46193818D01*
X197137521Y-46217557D01*
X197168886Y-46242934D01*
X197198521Y-46269707D01*
X197226245Y-46297820D01*
X197252056Y-46327272D01*
X197275956Y-46358064D01*
X197297943Y-46390195D01*
X197318019Y-46423666D01*
X197336182Y-46458476D01*
X197352434Y-46494626D01*
X197366774Y-46532116D01*
X197379202Y-46570944D01*
X197389717Y-46611113D01*
X197398321Y-46652621D01*
X197405013Y-46695468D01*
X197409793Y-46739655D01*
X197412661Y-46785182D01*
X197413617Y-46832048D01*
X197413617Y-48425000D01*
X196899242Y-48425000D01*
X196899242Y-48002948D01*
X196892276Y-48043327D01*
X196882644Y-48082031D01*
X196870345Y-48119061D01*
X196855381Y-48154417D01*
X196837750Y-48188098D01*
X196817454Y-48220105D01*
X196794491Y-48250437D01*
X196768862Y-48279095D01*
X196740566Y-48306079D01*
X196709605Y-48331388D01*
X196687483Y-48347330D01*
X196652583Y-48369591D01*
X196615750Y-48389663D01*
X196576986Y-48407544D01*
X196536289Y-48423236D01*
X196508085Y-48432481D01*
X196479022Y-48440753D01*
X196449100Y-48448052D01*
X196418320Y-48454377D01*
X196386681Y-48459730D01*
X196354183Y-48464109D01*
X196320827Y-48467515D01*
X196286612Y-48469948D01*
X196251538Y-48471408D01*
X196215606Y-48471894D01*
X196171860Y-48471118D01*
X196129281Y-48468791D01*
X196087871Y-48464913D01*
X196047628Y-48459484D01*
X196008553Y-48452503D01*
X195970646Y-48443970D01*
X195933906Y-48433887D01*
X195898334Y-48422252D01*
X195863930Y-48409066D01*
X195830694Y-48394328D01*
X195798626Y-48378039D01*
X195767726Y-48360199D01*
X195737993Y-48340807D01*
X195709428Y-48319864D01*
X195682031Y-48297370D01*
X195655801Y-48273325D01*
X195631046Y-48247931D01*
X195607888Y-48221576D01*
X195586327Y-48194259D01*
X195566363Y-48165980D01*
X195547996Y-48136740D01*
X195531226Y-48106537D01*
X195516053Y-48075373D01*
X195502478Y-48043248D01*
X195490499Y-48010161D01*
X195480118Y-47976112D01*
X195471334Y-47941101D01*
X195464147Y-47905129D01*
X195458557Y-47868195D01*
X195454564Y-47830299D01*
X195452169Y-47791441D01*
X195451370Y-47751622D01*
X195452277Y-47710208D01*
X195453092Y-47698133D01*
X195970875Y-47698133D01*
X195972546Y-47736910D01*
X195977561Y-47773741D01*
X195985918Y-47808626D01*
X195997619Y-47841564D01*
X196012663Y-47872557D01*
X196031050Y-47901602D01*
X196052780Y-47928702D01*
X196077853Y-47953855D01*
X196106200Y-47976352D01*
X196137387Y-47995850D01*
X196171413Y-48012347D01*
X196208279Y-48025846D01*
X196237791Y-48034001D01*
X196268900Y-48040469D01*
X196301607Y-48045249D01*
X196335911Y-48048343D01*
X196371812Y-48049749D01*
X196384133Y-48049842D01*
X196426828Y-48048825D01*
X196467810Y-48045772D01*
X196507079Y-48040685D01*
X196544635Y-48033562D01*
X196580478Y-48024404D01*
X196614608Y-48013212D01*
X196647025Y-47999984D01*
X196677729Y-47984721D01*
X196706719Y-47967423D01*
X196733997Y-47948091D01*
X196751230Y-47934071D01*
X196775325Y-47911682D01*
X196797049Y-47887927D01*
X196816403Y-47862806D01*
X196833388Y-47836321D01*
X196848002Y-47808470D01*
X196860247Y-47779254D01*
X196870121Y-47748672D01*
X196877626Y-47716726D01*
X196882761Y-47683414D01*
X196885526Y-47648737D01*
X196886052Y-47624860D01*
X196886052Y-47346423D01*
X196346032Y-47346423D01*
X196314239Y-47347292D01*
X196283710Y-47349901D01*
X196254442Y-47354248D01*
X196217382Y-47362748D01*
X196182566Y-47374340D01*
X196149994Y-47389024D01*
X196119666Y-47406798D01*
X196091582Y-47427664D01*
X196071991Y-47445341D01*
X196048292Y-47470769D01*
X196027753Y-47497961D01*
X196010373Y-47526915D01*
X195996154Y-47557632D01*
X195985094Y-47590113D01*
X195977194Y-47624356D01*
X195972454Y-47660363D01*
X195970875Y-47698133D01*
X195453092Y-47698133D01*
X195454999Y-47669865D01*
X195459536Y-47630593D01*
X195465887Y-47592391D01*
X195474053Y-47555259D01*
X195484034Y-47519198D01*
X195495829Y-47484208D01*
X195509439Y-47450287D01*
X195524863Y-47417438D01*
X195542102Y-47385658D01*
X195561156Y-47354950D01*
X195582025Y-47325311D01*
X195604708Y-47296744D01*
X195629205Y-47269246D01*
X195655518Y-47242819D01*
X195683645Y-47217463D01*
X195713355Y-47193329D01*
X195744416Y-47170751D01*
X195776827Y-47149731D01*
X195810590Y-47130268D01*
X195845704Y-47112362D01*
X195882169Y-47096013D01*
X195919984Y-47081221D01*
X195959151Y-47067986D01*
X195999668Y-47056308D01*
X196041537Y-47046188D01*
X196084757Y-47037624D01*
X196129327Y-47030617D01*
X196175249Y-47025167D01*
X196222521Y-47021275D01*
X196271144Y-47018939D01*
X196321119Y-47018161D01*
X196886052Y-47018161D01*
X196886052Y-46837909D01*
X196884455Y-46791593D01*
X196879664Y-46748265D01*
X196871678Y-46707925D01*
X196860499Y-46670573D01*
X196846124Y-46636209D01*
X196828556Y-46604833D01*
X196807794Y-46576446D01*
X196783837Y-46551046D01*
X196756686Y-46528635D01*
X196726341Y-46509212D01*
X196692801Y-46492777D01*
X196656067Y-46479330D01*
X196616139Y-46468872D01*
X196573017Y-46461401D01*
X196526701Y-46456919D01*
X196477190Y-46455425D01*
X196442964Y-46456114D01*
X196410077Y-46458181D01*
X196378529Y-46461627D01*
X196348321Y-46466450D01*
X196319453Y-46472652D01*
X196283045Y-46483065D01*
X196249019Y-46495928D01*
X196217375Y-46511241D01*
X196188111Y-46529004D01*
X196181168Y-46533827D01*
X196155385Y-46554447D01*
X196132624Y-46577104D01*
X196112886Y-46601799D01*
X196096171Y-46628532D01*
X196082478Y-46657303D01*
X196071808Y-46688112D01*
X196064160Y-46720959D01*
X196059535Y-46755844D01*
X195552487Y-46755844D01*
X195555492Y-46716022D01*
X195560295Y-46677156D01*
X195566895Y-46639246D01*
X195575293Y-46602291D01*
X195585488Y-46566293D01*
X195597481Y-46531251D01*
X195611271Y-46497165D01*
X195626858Y-46464035D01*
X195644244Y-46431861D01*
X195663426Y-46400642D01*
X195684406Y-46370380D01*
X195707184Y-46341074D01*
X195731759Y-46312723D01*
X195758131Y-46285329D01*
X195786301Y-46258891D01*
X195816269Y-46233408D01*
X195847805Y-46209185D01*
X195880680Y-46186525D01*
X195914895Y-46165428D01*
X195950450Y-46145893D01*
X195987344Y-46127921D01*
X196025577Y-46111512D01*
X196065150Y-46096666D01*
X196106063Y-46083382D01*
X196148315Y-46071661D01*
X196191907Y-46061503D01*
X196236838Y-46052908D01*
X196283108Y-46045876D01*
X196330719Y-46040406D01*
X196379668Y-46036499D01*
X196429958Y-46034155D01*
X196481586Y-46033374D01*
X196536135Y-46034192D01*
G37*
G36*
X198070142Y-48425000D02*
G01*
X198070142Y-45329954D01*
X198597706Y-45329954D01*
X198597706Y-46974930D01*
X198969200Y-46974930D01*
X199522410Y-46080268D01*
X200108593Y-46080268D01*
X199421293Y-47196946D01*
X200134238Y-48425000D01*
X199534866Y-48425000D01*
X198969200Y-47440212D01*
X198597706Y-47440212D01*
X198597706Y-48425000D01*
X198070142Y-48425000D01*
G37*
G36*
X201548573Y-46033829D02*
G01*
X201584067Y-46035194D01*
X201618984Y-46037469D01*
X201653322Y-46040655D01*
X201687082Y-46044751D01*
X201720263Y-46049757D01*
X201752867Y-46055673D01*
X201784892Y-46062500D01*
X201816340Y-46070236D01*
X201847209Y-46078883D01*
X201877499Y-46088440D01*
X201907212Y-46098907D01*
X201936347Y-46110284D01*
X201964903Y-46122572D01*
X201992881Y-46135769D01*
X202020281Y-46149877D01*
X202047103Y-46164712D01*
X202073164Y-46180274D01*
X202098463Y-46196563D01*
X202123001Y-46213579D01*
X202146777Y-46231322D01*
X202169792Y-46249792D01*
X202192046Y-46268989D01*
X202223999Y-46299147D01*
X202254239Y-46330941D01*
X202282766Y-46364371D01*
X202300833Y-46387567D01*
X202318138Y-46411489D01*
X202334681Y-46436139D01*
X202350464Y-46461515D01*
X202358069Y-46474476D01*
X202372709Y-46500857D01*
X202386405Y-46527794D01*
X202399156Y-46555285D01*
X202410963Y-46583332D01*
X202421825Y-46611934D01*
X202431743Y-46641092D01*
X202440716Y-46670804D01*
X202448744Y-46701072D01*
X202455828Y-46731896D01*
X202461968Y-46763274D01*
X202467163Y-46795208D01*
X202471413Y-46827697D01*
X202474719Y-46860741D01*
X202477080Y-46894341D01*
X202478497Y-46928496D01*
X202478969Y-46963206D01*
X202478969Y-47393318D01*
X201043554Y-47393318D01*
X201043554Y-47547923D01*
X201044630Y-47589534D01*
X201047856Y-47629188D01*
X201053234Y-47666883D01*
X201060762Y-47702621D01*
X201070441Y-47736401D01*
X201082271Y-47768223D01*
X201096253Y-47798087D01*
X201112385Y-47825994D01*
X201130668Y-47851943D01*
X201151102Y-47875934D01*
X201165920Y-47890840D01*
X201189759Y-47911530D01*
X201215388Y-47930184D01*
X201242807Y-47946804D01*
X201272017Y-47961388D01*
X201303017Y-47973938D01*
X201335807Y-47984452D01*
X201370388Y-47992932D01*
X201406759Y-47999376D01*
X201444920Y-48003785D01*
X201484871Y-48006159D01*
X201512500Y-48006612D01*
X201542850Y-48006129D01*
X201572350Y-48004680D01*
X201610360Y-48001245D01*
X201646859Y-47996093D01*
X201681847Y-47989224D01*
X201715323Y-47980637D01*
X201747288Y-47970333D01*
X201777742Y-47958312D01*
X201792403Y-47951657D01*
X201820040Y-47937117D01*
X201844701Y-47920974D01*
X201871341Y-47898541D01*
X201893330Y-47873604D01*
X201910668Y-47846163D01*
X201923355Y-47816217D01*
X201930156Y-47790457D01*
X202453324Y-47790457D01*
X202445665Y-47828716D01*
X202436425Y-47866008D01*
X202425606Y-47902332D01*
X202413207Y-47937689D01*
X202399228Y-47972079D01*
X202383669Y-48005501D01*
X202366530Y-48037956D01*
X202347811Y-48069443D01*
X202327512Y-48099963D01*
X202305633Y-48129515D01*
X202282175Y-48158100D01*
X202257136Y-48185718D01*
X202230517Y-48212368D01*
X202202319Y-48238051D01*
X202172540Y-48262766D01*
X202141182Y-48286514D01*
X202108587Y-48308962D01*
X202075099Y-48329962D01*
X202040718Y-48349514D01*
X202005444Y-48367618D01*
X201969277Y-48384273D01*
X201932217Y-48399480D01*
X201894263Y-48413239D01*
X201855417Y-48425549D01*
X201815678Y-48436411D01*
X201775046Y-48445825D01*
X201733521Y-48453791D01*
X201691103Y-48460308D01*
X201647792Y-48465377D01*
X201603588Y-48468998D01*
X201558491Y-48471170D01*
X201512500Y-48471894D01*
X201475884Y-48471445D01*
X201439857Y-48470097D01*
X201404420Y-48467850D01*
X201369573Y-48464704D01*
X201335315Y-48460660D01*
X201301646Y-48455717D01*
X201268568Y-48449875D01*
X201236079Y-48443135D01*
X201204179Y-48435495D01*
X201172869Y-48426957D01*
X201142149Y-48417521D01*
X201112019Y-48407185D01*
X201082478Y-48395951D01*
X201053526Y-48383818D01*
X201025164Y-48370786D01*
X200997392Y-48356856D01*
X200970390Y-48342009D01*
X200944155Y-48326413D01*
X200918687Y-48310067D01*
X200893986Y-48292971D01*
X200870052Y-48275125D01*
X200846885Y-48256529D01*
X200824486Y-48237183D01*
X200802853Y-48217088D01*
X200781987Y-48196242D01*
X200761889Y-48174647D01*
X200742557Y-48152301D01*
X200723993Y-48129206D01*
X200706196Y-48105361D01*
X200689165Y-48080766D01*
X200672902Y-48055421D01*
X200657406Y-48029326D01*
X200642855Y-48002564D01*
X200629242Y-47975219D01*
X200616568Y-47947289D01*
X200604833Y-47918776D01*
X200594037Y-47889678D01*
X200584179Y-47859997D01*
X200575261Y-47829732D01*
X200567281Y-47798883D01*
X200560240Y-47767450D01*
X200554137Y-47735433D01*
X200548974Y-47702833D01*
X200544749Y-47669648D01*
X200541463Y-47635879D01*
X200539116Y-47601527D01*
X200537708Y-47566591D01*
X200537239Y-47531071D01*
X200537239Y-47065055D01*
X201043554Y-47065055D01*
X201972654Y-47065055D01*
X201972654Y-46980792D01*
X201972190Y-46949822D01*
X201970799Y-46919746D01*
X201966974Y-46876306D01*
X201961062Y-46834876D01*
X201953064Y-46795454D01*
X201942978Y-46758042D01*
X201930807Y-46722639D01*
X201916549Y-46689246D01*
X201900204Y-46657861D01*
X201881773Y-46628487D01*
X201861255Y-46601121D01*
X201853952Y-46592445D01*
X201830905Y-46567958D01*
X201806004Y-46545880D01*
X201779248Y-46526210D01*
X201750637Y-46508949D01*
X201720172Y-46494096D01*
X201687852Y-46481652D01*
X201653677Y-46471616D01*
X201617647Y-46463989D01*
X201579763Y-46458770D01*
X201540024Y-46455960D01*
X201512500Y-46455425D01*
X201469947Y-46456642D01*
X201429390Y-46460294D01*
X201390830Y-46466380D01*
X201354265Y-46474900D01*
X201319698Y-46485854D01*
X201287126Y-46499243D01*
X201256551Y-46515066D01*
X201227973Y-46533323D01*
X201201391Y-46554015D01*
X201176805Y-46577141D01*
X201161524Y-46593911D01*
X201140441Y-46620725D01*
X201121432Y-46649510D01*
X201104497Y-46680265D01*
X201089636Y-46712991D01*
X201076848Y-46747687D01*
X201066134Y-46784354D01*
X201057494Y-46822992D01*
X201050927Y-46863601D01*
X201046434Y-46906180D01*
X201044591Y-46935661D01*
X201043669Y-46966017D01*
X201043554Y-46981524D01*
X201043554Y-47065055D01*
X200537239Y-47065055D01*
X200537239Y-46974197D01*
X200537708Y-46938677D01*
X200539116Y-46903741D01*
X200541463Y-46869388D01*
X200544749Y-46835620D01*
X200548974Y-46802435D01*
X200554137Y-46769834D01*
X200560240Y-46737818D01*
X200567281Y-46706385D01*
X200575261Y-46675536D01*
X200584179Y-46645271D01*
X200594037Y-46615589D01*
X200604833Y-46586492D01*
X200616568Y-46557979D01*
X200629242Y-46530049D01*
X200642855Y-46502703D01*
X200657406Y-46475942D01*
X200672902Y-46449850D01*
X200689165Y-46424513D01*
X200706196Y-46399932D01*
X200723993Y-46376107D01*
X200742557Y-46353038D01*
X200761889Y-46330724D01*
X200781987Y-46309166D01*
X200802853Y-46288363D01*
X200824486Y-46268316D01*
X200846885Y-46249025D01*
X200870052Y-46230489D01*
X200893986Y-46212709D01*
X200918687Y-46195684D01*
X200944155Y-46179415D01*
X200970390Y-46163902D01*
X200997392Y-46149145D01*
X201025164Y-46135125D01*
X201053526Y-46122011D01*
X201082478Y-46109801D01*
X201112019Y-46098495D01*
X201142149Y-46088093D01*
X201172869Y-46078597D01*
X201204179Y-46070004D01*
X201236079Y-46062316D01*
X201268568Y-46055533D01*
X201301646Y-46049654D01*
X201335315Y-46044679D01*
X201369573Y-46040609D01*
X201404420Y-46037444D01*
X201439857Y-46035182D01*
X201475884Y-46033826D01*
X201512500Y-46033374D01*
X201548573Y-46033829D01*
G37*
G36*
X187318816Y-53465000D02*
G01*
X186542856Y-50369954D01*
X187087274Y-50369954D01*
X187555487Y-52391552D01*
X187564909Y-52428933D01*
X187571841Y-52457464D01*
X187578657Y-52486420D01*
X187585356Y-52515802D01*
X187591940Y-52545608D01*
X187598408Y-52575840D01*
X187604760Y-52606496D01*
X187610996Y-52637578D01*
X187617116Y-52669085D01*
X187623121Y-52701016D01*
X187625096Y-52711755D01*
X187630875Y-52743422D01*
X187636396Y-52773853D01*
X187641660Y-52803048D01*
X187648277Y-52840051D01*
X187654437Y-52874855D01*
X187660138Y-52907462D01*
X187665382Y-52937870D01*
X187671293Y-52972789D01*
X187673456Y-52985795D01*
X187679081Y-52952250D01*
X187684095Y-52922941D01*
X187689568Y-52891433D01*
X187695498Y-52857728D01*
X187701887Y-52821824D01*
X187708733Y-52783722D01*
X187714169Y-52753703D01*
X187719862Y-52722448D01*
X187721816Y-52711755D01*
X187727913Y-52679643D01*
X187734113Y-52647878D01*
X187740415Y-52616462D01*
X187746821Y-52585393D01*
X187753329Y-52554672D01*
X187759941Y-52524299D01*
X187766656Y-52494274D01*
X187773474Y-52464596D01*
X187780395Y-52435266D01*
X187787419Y-52406284D01*
X187792158Y-52387156D01*
X188243519Y-50369954D01*
X188779144Y-50369954D01*
X188003184Y-53465000D01*
X187318816Y-53465000D01*
G37*
G36*
X189267141Y-53465000D02*
G01*
X189267141Y-52999717D01*
X190068746Y-52999717D01*
X190068746Y-50913639D01*
X189262745Y-51502752D01*
X189262745Y-50913639D01*
X189972026Y-50369954D01*
X190596310Y-50369954D01*
X190596310Y-52999717D01*
X191242577Y-52999717D01*
X191242577Y-53465000D01*
X189267141Y-53465000D01*
G37*
G36*
X192696310Y-53511894D02*
G01*
X192663675Y-53510928D01*
X192632263Y-53508030D01*
X192602074Y-53503200D01*
X192573109Y-53496438D01*
X192536392Y-53484417D01*
X192501851Y-53468961D01*
X192469485Y-53450070D01*
X192439295Y-53427745D01*
X192411279Y-53401985D01*
X192386034Y-53373466D01*
X192364155Y-53342863D01*
X192345643Y-53310176D01*
X192330496Y-53275406D01*
X192318715Y-53238552D01*
X192312088Y-53209544D01*
X192307355Y-53179364D01*
X192304515Y-53148012D01*
X192303568Y-53115488D01*
X192304515Y-53082945D01*
X192307355Y-53051535D01*
X192312088Y-53021258D01*
X192318715Y-52992115D01*
X192330496Y-52955020D01*
X192345643Y-52919941D01*
X192364155Y-52886877D01*
X192386034Y-52855827D01*
X192411279Y-52826793D01*
X192439295Y-52800518D01*
X192469485Y-52777746D01*
X192501851Y-52758477D01*
X192536392Y-52742712D01*
X192573109Y-52730451D01*
X192602074Y-52723553D01*
X192632263Y-52718627D01*
X192663675Y-52715671D01*
X192696310Y-52714685D01*
X192728946Y-52715671D01*
X192760358Y-52718627D01*
X192790547Y-52723553D01*
X192819512Y-52730451D01*
X192856228Y-52742712D01*
X192890770Y-52758477D01*
X192923136Y-52777746D01*
X192953326Y-52800518D01*
X192981342Y-52826793D01*
X193006587Y-52855827D01*
X193028466Y-52886877D01*
X193046978Y-52919941D01*
X193062125Y-52955020D01*
X193073906Y-52992115D01*
X193080533Y-53021258D01*
X193085266Y-53051535D01*
X193088106Y-53082945D01*
X193089053Y-53115488D01*
X193088106Y-53148012D01*
X193085266Y-53179364D01*
X193080533Y-53209544D01*
X193073906Y-53238552D01*
X193062125Y-53275406D01*
X193046978Y-53310176D01*
X193028466Y-53342863D01*
X193006587Y-53373466D01*
X192981342Y-53401985D01*
X192953326Y-53427745D01*
X192923136Y-53450070D01*
X192890770Y-53468961D01*
X192856228Y-53484417D01*
X192819512Y-53496438D01*
X192790547Y-53503200D01*
X192760358Y-53508030D01*
X192728946Y-53510928D01*
X192696310Y-53511894D01*
G37*
G36*
X195244855Y-51637117D02*
G01*
X195274141Y-51640139D01*
X195308495Y-51646751D01*
X195340344Y-51656511D01*
X195369689Y-51669420D01*
X195396530Y-51685477D01*
X195416199Y-51700589D01*
X195438152Y-51722206D01*
X195456384Y-51746757D01*
X195470896Y-51774241D01*
X195481686Y-51804660D01*
X195488756Y-51838012D01*
X195492105Y-51874297D01*
X195492403Y-51889633D01*
X195491212Y-51920076D01*
X195486375Y-51955650D01*
X195477817Y-51988468D01*
X195465538Y-52018533D01*
X195449538Y-52045842D01*
X195429817Y-52070396D01*
X195416199Y-52083806D01*
X195391362Y-52103437D01*
X195364021Y-52119741D01*
X195334175Y-52132718D01*
X195301824Y-52142367D01*
X195266970Y-52148689D01*
X195237283Y-52151351D01*
X195213966Y-52151950D01*
X195183065Y-52150885D01*
X195153745Y-52147691D01*
X195119316Y-52140704D01*
X195087355Y-52130389D01*
X195057864Y-52116747D01*
X195030841Y-52099777D01*
X195011000Y-52083806D01*
X194989258Y-52060905D01*
X194971201Y-52035249D01*
X194956829Y-52006838D01*
X194946142Y-51975671D01*
X194939140Y-51941751D01*
X194935824Y-51905075D01*
X194935529Y-51889633D01*
X194936708Y-51859431D01*
X194941499Y-51824319D01*
X194949975Y-51792140D01*
X194962135Y-51762895D01*
X194977981Y-51736584D01*
X194997512Y-51713207D01*
X195011000Y-51700589D01*
X195036048Y-51682013D01*
X195063565Y-51666586D01*
X195093550Y-51654307D01*
X195126004Y-51645177D01*
X195160927Y-51639195D01*
X195190642Y-51636676D01*
X195213966Y-51636109D01*
X195244855Y-51637117D01*
G37*
G36*
X195251112Y-50323509D02*
G01*
X195287628Y-50324857D01*
X195323514Y-50327104D01*
X195358771Y-50330249D01*
X195393398Y-50334294D01*
X195427396Y-50339237D01*
X195460764Y-50345079D01*
X195493502Y-50351819D01*
X195525610Y-50359458D01*
X195557089Y-50367996D01*
X195587938Y-50377433D01*
X195618157Y-50387769D01*
X195647747Y-50399003D01*
X195676707Y-50411136D01*
X195705037Y-50424167D01*
X195732738Y-50438098D01*
X195759826Y-50452755D01*
X195786135Y-50468151D01*
X195811666Y-50484286D01*
X195836419Y-50501158D01*
X195860393Y-50518770D01*
X195883588Y-50537119D01*
X195906005Y-50556207D01*
X195927643Y-50576034D01*
X195958641Y-50607159D01*
X195987887Y-50639945D01*
X196006412Y-50662725D01*
X196024157Y-50686244D01*
X196041125Y-50710501D01*
X196057313Y-50735497D01*
X196072724Y-50761231D01*
X196087275Y-50787526D01*
X196100888Y-50814388D01*
X196113562Y-50841817D01*
X196125297Y-50869812D01*
X196136093Y-50898374D01*
X196145951Y-50927503D01*
X196154869Y-50957199D01*
X196162849Y-50987461D01*
X196169890Y-51018290D01*
X196175993Y-51049686D01*
X196181156Y-51081648D01*
X196185381Y-51114177D01*
X196188666Y-51147273D01*
X196191013Y-51180936D01*
X196192422Y-51215165D01*
X196192891Y-51249961D01*
X196192891Y-52584993D01*
X196192422Y-52619791D01*
X196191013Y-52654029D01*
X196188666Y-52687706D01*
X196185381Y-52720822D01*
X196181156Y-52753377D01*
X196175993Y-52785371D01*
X196169890Y-52816804D01*
X196162849Y-52847676D01*
X196154869Y-52877987D01*
X196145951Y-52907737D01*
X196136093Y-52936925D01*
X196125297Y-52965553D01*
X196113562Y-52993620D01*
X196100888Y-53021126D01*
X196087275Y-53048071D01*
X196072724Y-53074455D01*
X196057313Y-53100104D01*
X196041125Y-53125025D01*
X196024157Y-53149219D01*
X196006412Y-53172687D01*
X195987887Y-53195427D01*
X195958641Y-53228174D01*
X195927643Y-53259286D01*
X195906005Y-53279118D01*
X195883588Y-53298224D01*
X195860393Y-53316602D01*
X195836419Y-53334253D01*
X195811666Y-53351178D01*
X195786135Y-53367375D01*
X195759826Y-53382845D01*
X195732738Y-53397588D01*
X195705037Y-53411430D01*
X195676707Y-53424379D01*
X195647747Y-53436435D01*
X195618157Y-53447597D01*
X195587938Y-53457867D01*
X195557089Y-53467243D01*
X195525610Y-53475727D01*
X195493502Y-53483318D01*
X195460764Y-53490015D01*
X195427396Y-53495820D01*
X195393398Y-53500731D01*
X195358771Y-53504750D01*
X195323514Y-53507876D01*
X195287628Y-53510108D01*
X195251112Y-53511448D01*
X195213966Y-53511894D01*
X195176817Y-53511448D01*
X195140292Y-53510108D01*
X195104391Y-53507876D01*
X195069114Y-53504750D01*
X195034462Y-53500731D01*
X195000433Y-53495820D01*
X194967028Y-53490015D01*
X194934247Y-53483318D01*
X194902090Y-53475727D01*
X194870557Y-53467243D01*
X194839647Y-53457867D01*
X194809362Y-53447597D01*
X194779701Y-53436435D01*
X194750664Y-53424379D01*
X194722251Y-53411430D01*
X194694461Y-53397588D01*
X194667462Y-53382845D01*
X194641235Y-53367375D01*
X194615782Y-53351178D01*
X194591101Y-53334253D01*
X194567193Y-53316602D01*
X194544057Y-53298224D01*
X194521695Y-53279118D01*
X194500105Y-53259286D01*
X194469169Y-53228174D01*
X194439973Y-53195427D01*
X194421474Y-53172687D01*
X194403748Y-53149219D01*
X194386795Y-53125025D01*
X194370615Y-53100104D01*
X194355208Y-53074455D01*
X194340656Y-53048071D01*
X194327044Y-53021126D01*
X194314370Y-52993620D01*
X194302635Y-52965553D01*
X194291838Y-52936925D01*
X194281981Y-52907737D01*
X194273062Y-52877987D01*
X194265082Y-52847676D01*
X194258041Y-52816804D01*
X194251939Y-52785371D01*
X194246776Y-52753377D01*
X194242551Y-52720822D01*
X194239265Y-52687706D01*
X194236918Y-52654029D01*
X194235510Y-52619791D01*
X194235040Y-52584993D01*
X194235040Y-52581329D01*
X194732563Y-52581329D01*
X194733709Y-52620287D01*
X194737148Y-52657750D01*
X194742880Y-52693720D01*
X194750904Y-52728195D01*
X194761221Y-52761177D01*
X194773831Y-52792664D01*
X194788733Y-52822657D01*
X194805928Y-52851156D01*
X194825415Y-52878161D01*
X194847195Y-52903672D01*
X194862989Y-52919849D01*
X194888360Y-52942503D01*
X194915290Y-52962929D01*
X194943779Y-52981126D01*
X194973825Y-52997095D01*
X195005431Y-53010836D01*
X195038595Y-53022348D01*
X195073317Y-53031633D01*
X195109598Y-53038689D01*
X195147437Y-53043517D01*
X195186835Y-53046116D01*
X195213966Y-53046612D01*
X195254396Y-53045497D01*
X195293255Y-53042155D01*
X195330543Y-53036584D01*
X195366259Y-53028786D01*
X195400404Y-53018759D01*
X195432977Y-53006503D01*
X195463979Y-52992020D01*
X195493410Y-52975308D01*
X195521270Y-52956368D01*
X195547558Y-52935200D01*
X195564210Y-52919849D01*
X195587649Y-52895335D01*
X195608783Y-52869326D01*
X195627612Y-52841822D01*
X195644135Y-52812825D01*
X195658352Y-52782334D01*
X195670264Y-52750349D01*
X195679870Y-52716869D01*
X195687171Y-52681896D01*
X195692166Y-52645428D01*
X195694856Y-52607467D01*
X195695368Y-52581329D01*
X195695368Y-51253625D01*
X195694235Y-51214667D01*
X195690835Y-51177203D01*
X195685167Y-51141234D01*
X195677233Y-51106758D01*
X195667032Y-51073777D01*
X195654565Y-51042290D01*
X195639830Y-51012297D01*
X195622828Y-50983797D01*
X195603560Y-50956792D01*
X195582024Y-50931281D01*
X195566408Y-50915104D01*
X195541397Y-50892450D01*
X195514725Y-50872025D01*
X195486391Y-50853828D01*
X195456396Y-50837859D01*
X195424739Y-50824118D01*
X195391421Y-50812605D01*
X195356441Y-50803321D01*
X195319799Y-50796265D01*
X195281496Y-50791437D01*
X195241532Y-50788837D01*
X195213966Y-50788342D01*
X195172894Y-50789456D01*
X195133483Y-50792799D01*
X195095734Y-50798369D01*
X195059646Y-50806168D01*
X195025220Y-50816195D01*
X194992456Y-50828450D01*
X194961353Y-50842934D01*
X194931911Y-50859646D01*
X194904131Y-50878586D01*
X194878013Y-50899754D01*
X194861523Y-50915104D01*
X194838477Y-50939619D01*
X194817697Y-50965628D01*
X194799184Y-50993131D01*
X194782938Y-51022128D01*
X194768959Y-51052620D01*
X194757247Y-51084605D01*
X194747802Y-51118084D01*
X194740623Y-51153058D01*
X194735712Y-51189525D01*
X194733067Y-51227487D01*
X194732563Y-51253625D01*
X194732563Y-52581329D01*
X194235040Y-52581329D01*
X194235040Y-51249961D01*
X194235510Y-51215165D01*
X194236918Y-51180936D01*
X194239265Y-51147273D01*
X194242551Y-51114177D01*
X194246776Y-51081648D01*
X194251939Y-51049686D01*
X194258041Y-51018290D01*
X194265082Y-50987461D01*
X194273062Y-50957199D01*
X194281981Y-50927503D01*
X194291838Y-50898374D01*
X194302635Y-50869812D01*
X194314370Y-50841817D01*
X194327044Y-50814388D01*
X194340656Y-50787526D01*
X194355208Y-50761231D01*
X194370615Y-50735497D01*
X194386795Y-50710501D01*
X194403748Y-50686244D01*
X194421474Y-50662725D01*
X194439973Y-50639945D01*
X194469169Y-50607159D01*
X194500105Y-50576034D01*
X194521695Y-50556207D01*
X194544057Y-50537119D01*
X194567193Y-50518770D01*
X194591101Y-50501158D01*
X194615782Y-50484286D01*
X194641235Y-50468151D01*
X194667462Y-50452755D01*
X194694461Y-50438098D01*
X194722251Y-50424167D01*
X194750664Y-50411136D01*
X194779701Y-50399003D01*
X194809362Y-50387769D01*
X194839647Y-50377433D01*
X194870557Y-50367996D01*
X194902090Y-50359458D01*
X194934247Y-50351819D01*
X194967028Y-50345079D01*
X195000433Y-50339237D01*
X195034462Y-50334294D01*
X195069114Y-50330249D01*
X195104391Y-50327104D01*
X195140292Y-50324857D01*
X195176817Y-50323509D01*
X195213966Y-50323060D01*
X195251112Y-50323509D01*
G37*
D11*
X111738095Y-35851069D02*
X111738095Y-36660592D01*
X111738095Y-36660592D02*
X111785714Y-36755830D01*
X111785714Y-36755830D02*
X111833333Y-36803450D01*
X111833333Y-36803450D02*
X111928571Y-36851069D01*
X111928571Y-36851069D02*
X112119047Y-36851069D01*
X112119047Y-36851069D02*
X112214285Y-36803450D01*
X112214285Y-36803450D02*
X112261904Y-36755830D01*
X112261904Y-36755830D02*
X112309523Y-36660592D01*
X112309523Y-36660592D02*
X112309523Y-35851069D01*
X112738095Y-36803450D02*
X112880952Y-36851069D01*
X112880952Y-36851069D02*
X113119047Y-36851069D01*
X113119047Y-36851069D02*
X113214285Y-36803450D01*
X113214285Y-36803450D02*
X113261904Y-36755830D01*
X113261904Y-36755830D02*
X113309523Y-36660592D01*
X113309523Y-36660592D02*
X113309523Y-36565354D01*
X113309523Y-36565354D02*
X113261904Y-36470116D01*
X113261904Y-36470116D02*
X113214285Y-36422497D01*
X113214285Y-36422497D02*
X113119047Y-36374878D01*
X113119047Y-36374878D02*
X112928571Y-36327259D01*
X112928571Y-36327259D02*
X112833333Y-36279640D01*
X112833333Y-36279640D02*
X112785714Y-36232021D01*
X112785714Y-36232021D02*
X112738095Y-36136783D01*
X112738095Y-36136783D02*
X112738095Y-36041545D01*
X112738095Y-36041545D02*
X112785714Y-35946307D01*
X112785714Y-35946307D02*
X112833333Y-35898688D01*
X112833333Y-35898688D02*
X112928571Y-35851069D01*
X112928571Y-35851069D02*
X113166666Y-35851069D01*
X113166666Y-35851069D02*
X113309523Y-35898688D01*
X114071428Y-36327259D02*
X114214285Y-36374878D01*
X114214285Y-36374878D02*
X114261904Y-36422497D01*
X114261904Y-36422497D02*
X114309523Y-36517735D01*
X114309523Y-36517735D02*
X114309523Y-36660592D01*
X114309523Y-36660592D02*
X114261904Y-36755830D01*
X114261904Y-36755830D02*
X114214285Y-36803450D01*
X114214285Y-36803450D02*
X114119047Y-36851069D01*
X114119047Y-36851069D02*
X113738095Y-36851069D01*
X113738095Y-36851069D02*
X113738095Y-35851069D01*
X113738095Y-35851069D02*
X114071428Y-35851069D01*
X114071428Y-35851069D02*
X114166666Y-35898688D01*
X114166666Y-35898688D02*
X114214285Y-35946307D01*
X114214285Y-35946307D02*
X114261904Y-36041545D01*
X114261904Y-36041545D02*
X114261904Y-36136783D01*
X114261904Y-36136783D02*
X114214285Y-36232021D01*
X114214285Y-36232021D02*
X114166666Y-36279640D01*
X114166666Y-36279640D02*
X114071428Y-36327259D01*
X114071428Y-36327259D02*
X113738095Y-36327259D01*
X105665714Y-37881069D02*
X105094286Y-37881069D01*
X105380000Y-37881069D02*
X105380000Y-36881069D01*
X105380000Y-36881069D02*
X105284762Y-37023926D01*
X105284762Y-37023926D02*
X105189524Y-37119164D01*
X105189524Y-37119164D02*
X105094286Y-37166783D01*
X110380952Y-37584402D02*
X110761904Y-37584402D01*
X110523809Y-37251069D02*
X110523809Y-38108211D01*
X110523809Y-38108211D02*
X110571428Y-38203450D01*
X110571428Y-38203450D02*
X110666666Y-38251069D01*
X110666666Y-38251069D02*
X110761904Y-38251069D01*
X111238095Y-38251069D02*
X111142857Y-38203450D01*
X111142857Y-38203450D02*
X111095238Y-38155830D01*
X111095238Y-38155830D02*
X111047619Y-38060592D01*
X111047619Y-38060592D02*
X111047619Y-37774878D01*
X111047619Y-37774878D02*
X111095238Y-37679640D01*
X111095238Y-37679640D02*
X111142857Y-37632021D01*
X111142857Y-37632021D02*
X111238095Y-37584402D01*
X111238095Y-37584402D02*
X111380952Y-37584402D01*
X111380952Y-37584402D02*
X111476190Y-37632021D01*
X111476190Y-37632021D02*
X111523809Y-37679640D01*
X111523809Y-37679640D02*
X111571428Y-37774878D01*
X111571428Y-37774878D02*
X111571428Y-38060592D01*
X111571428Y-38060592D02*
X111523809Y-38155830D01*
X111523809Y-38155830D02*
X111476190Y-38203450D01*
X111476190Y-38203450D02*
X111380952Y-38251069D01*
X111380952Y-38251069D02*
X111238095Y-38251069D01*
X112000000Y-37584402D02*
X112000000Y-38584402D01*
X112000000Y-37632021D02*
X112095238Y-37584402D01*
X112095238Y-37584402D02*
X112285714Y-37584402D01*
X112285714Y-37584402D02*
X112380952Y-37632021D01*
X112380952Y-37632021D02*
X112428571Y-37679640D01*
X112428571Y-37679640D02*
X112476190Y-37774878D01*
X112476190Y-37774878D02*
X112476190Y-38060592D01*
X112476190Y-38060592D02*
X112428571Y-38155830D01*
X112428571Y-38155830D02*
X112380952Y-38203450D01*
X112380952Y-38203450D02*
X112285714Y-38251069D01*
X112285714Y-38251069D02*
X112095238Y-38251069D01*
X112095238Y-38251069D02*
X112000000Y-38203450D01*
X112857143Y-38203450D02*
X112952381Y-38251069D01*
X112952381Y-38251069D02*
X113142857Y-38251069D01*
X113142857Y-38251069D02*
X113238095Y-38203450D01*
X113238095Y-38203450D02*
X113285714Y-38108211D01*
X113285714Y-38108211D02*
X113285714Y-38060592D01*
X113285714Y-38060592D02*
X113238095Y-37965354D01*
X113238095Y-37965354D02*
X113142857Y-37917735D01*
X113142857Y-37917735D02*
X113000000Y-37917735D01*
X113000000Y-37917735D02*
X112904762Y-37870116D01*
X112904762Y-37870116D02*
X112857143Y-37774878D01*
X112857143Y-37774878D02*
X112857143Y-37727259D01*
X112857143Y-37727259D02*
X112904762Y-37632021D01*
X112904762Y-37632021D02*
X113000000Y-37584402D01*
X113000000Y-37584402D02*
X113142857Y-37584402D01*
X113142857Y-37584402D02*
X113238095Y-37632021D01*
X113714286Y-38251069D02*
X113714286Y-37584402D01*
X113714286Y-37251069D02*
X113666667Y-37298688D01*
X113666667Y-37298688D02*
X113714286Y-37346307D01*
X113714286Y-37346307D02*
X113761905Y-37298688D01*
X113761905Y-37298688D02*
X113714286Y-37251069D01*
X113714286Y-37251069D02*
X113714286Y-37346307D01*
X114619047Y-38251069D02*
X114619047Y-37251069D01*
X114619047Y-38203450D02*
X114523809Y-38251069D01*
X114523809Y-38251069D02*
X114333333Y-38251069D01*
X114333333Y-38251069D02*
X114238095Y-38203450D01*
X114238095Y-38203450D02*
X114190476Y-38155830D01*
X114190476Y-38155830D02*
X114142857Y-38060592D01*
X114142857Y-38060592D02*
X114142857Y-37774878D01*
X114142857Y-37774878D02*
X114190476Y-37679640D01*
X114190476Y-37679640D02*
X114238095Y-37632021D01*
X114238095Y-37632021D02*
X114333333Y-37584402D01*
X114333333Y-37584402D02*
X114523809Y-37584402D01*
X114523809Y-37584402D02*
X114619047Y-37632021D01*
X115476190Y-38203450D02*
X115380952Y-38251069D01*
X115380952Y-38251069D02*
X115190476Y-38251069D01*
X115190476Y-38251069D02*
X115095238Y-38203450D01*
X115095238Y-38203450D02*
X115047619Y-38108211D01*
X115047619Y-38108211D02*
X115047619Y-37727259D01*
X115047619Y-37727259D02*
X115095238Y-37632021D01*
X115095238Y-37632021D02*
X115190476Y-37584402D01*
X115190476Y-37584402D02*
X115380952Y-37584402D01*
X115380952Y-37584402D02*
X115476190Y-37632021D01*
X115476190Y-37632021D02*
X115523809Y-37727259D01*
X115523809Y-37727259D02*
X115523809Y-37822497D01*
X115523809Y-37822497D02*
X115047619Y-37917735D01*
X125157200Y-45783332D02*
X125204819Y-45640475D01*
X125204819Y-45640475D02*
X125204819Y-45402380D01*
X125204819Y-45402380D02*
X125157200Y-45307142D01*
X125157200Y-45307142D02*
X125109580Y-45259523D01*
X125109580Y-45259523D02*
X125014342Y-45211904D01*
X125014342Y-45211904D02*
X124919104Y-45211904D01*
X124919104Y-45211904D02*
X124823866Y-45259523D01*
X124823866Y-45259523D02*
X124776247Y-45307142D01*
X124776247Y-45307142D02*
X124728628Y-45402380D01*
X124728628Y-45402380D02*
X124681009Y-45592856D01*
X124681009Y-45592856D02*
X124633390Y-45688094D01*
X124633390Y-45688094D02*
X124585771Y-45735713D01*
X124585771Y-45735713D02*
X124490533Y-45783332D01*
X124490533Y-45783332D02*
X124395295Y-45783332D01*
X124395295Y-45783332D02*
X124300057Y-45735713D01*
X124300057Y-45735713D02*
X124252438Y-45688094D01*
X124252438Y-45688094D02*
X124204819Y-45592856D01*
X124204819Y-45592856D02*
X124204819Y-45354761D01*
X124204819Y-45354761D02*
X124252438Y-45211904D01*
X124204819Y-44878570D02*
X125204819Y-44640475D01*
X125204819Y-44640475D02*
X124490533Y-44449999D01*
X124490533Y-44449999D02*
X125204819Y-44259523D01*
X125204819Y-44259523D02*
X124204819Y-44021428D01*
X124538152Y-43211904D02*
X125204819Y-43211904D01*
X124157200Y-43449999D02*
X124871485Y-43688094D01*
X124871485Y-43688094D02*
X124871485Y-43069047D01*
X123367319Y-80401904D02*
X122367319Y-80401904D01*
X123367319Y-79830476D02*
X122795890Y-80259047D01*
X122367319Y-79830476D02*
X122938747Y-80401904D01*
X123367319Y-95641904D02*
X122367319Y-95641904D01*
X123367319Y-95070476D02*
X122795890Y-95499047D01*
X122367319Y-95070476D02*
X122938747Y-95641904D01*
X123367319Y-109929404D02*
X122367319Y-109929404D01*
X123367319Y-109357976D02*
X122795890Y-109786547D01*
X122367319Y-109357976D02*
X122938747Y-109929404D01*
X117811069Y-124245654D02*
X116811069Y-124245654D01*
X117811069Y-123674226D02*
X117239640Y-124102797D01*
X116811069Y-123674226D02*
X117382497Y-124245654D01*
X112586069Y-124245654D02*
X111586069Y-124245654D01*
X112586069Y-123674226D02*
X112014640Y-124102797D01*
X111586069Y-123674226D02*
X112157497Y-124245654D01*
X106698569Y-124245654D02*
X105698569Y-124245654D01*
X106698569Y-123674226D02*
X106127140Y-124102797D01*
X105698569Y-123674226D02*
X106269997Y-124245654D01*
X117811069Y-109929404D02*
X116811069Y-109929404D01*
X117811069Y-109357976D02*
X117239640Y-109786547D01*
X116811069Y-109357976D02*
X117382497Y-109929404D01*
X112254819Y-109929404D02*
X111254819Y-109929404D01*
X112254819Y-109357976D02*
X111683390Y-109786547D01*
X111254819Y-109357976D02*
X111826247Y-109929404D01*
X106698569Y-109929404D02*
X105698569Y-109929404D01*
X106698569Y-109357976D02*
X106127140Y-109786547D01*
X105698569Y-109357976D02*
X106269997Y-109929404D01*
X117811069Y-95641904D02*
X116811069Y-95641904D01*
X117811069Y-95070476D02*
X117239640Y-95499047D01*
X116811069Y-95070476D02*
X117382497Y-95641904D01*
X112254819Y-95641904D02*
X111254819Y-95641904D01*
X112254819Y-95070476D02*
X111683390Y-95499047D01*
X111254819Y-95070476D02*
X111826247Y-95641904D01*
X106698569Y-95641904D02*
X105698569Y-95641904D01*
X106698569Y-95070476D02*
X106127140Y-95499047D01*
X105698569Y-95070476D02*
X106269997Y-95641904D01*
X117811069Y-80401904D02*
X116811069Y-80401904D01*
X117811069Y-79830476D02*
X117239640Y-80259047D01*
X116811069Y-79830476D02*
X117382497Y-80401904D01*
X112254819Y-80401904D02*
X111254819Y-80401904D01*
X112254819Y-79830476D02*
X111683390Y-80259047D01*
X111254819Y-79830476D02*
X111826247Y-80401904D01*
X106698569Y-80401904D02*
X105698569Y-80401904D01*
X106698569Y-79830476D02*
X106127140Y-80259047D01*
X105698569Y-79830476D02*
X106269997Y-80401904D01*
D12*
X172705750Y-38845500D02*
X172451750Y-38857500D01*
X172705750Y-55482500D02*
X172705750Y-38845500D01*
X169365750Y-55457500D02*
X172705750Y-55482500D01*
X169365750Y-38857500D02*
X172451750Y-38857500D01*
X154544750Y-36051500D02*
X154544750Y-38464500D01*
X164323750Y-38464500D02*
X154544750Y-38464500D01*
X164323750Y-36051500D02*
X164323750Y-38464500D01*
X154544750Y-36051500D02*
X164323750Y-36051500D01*
X146265750Y-38857500D02*
X169365750Y-38857500D01*
X146265750Y-55457500D02*
X146265750Y-38857500D01*
X169365750Y-55457500D02*
X146265750Y-55457500D01*
X145843750Y-62862500D02*
X145843750Y-35562500D01*
X173243750Y-62862500D02*
X145843750Y-62862500D01*
X173243750Y-35562500D02*
X173243750Y-62862500D01*
X145843750Y-35562500D02*
X173243750Y-35562500D01*
D11*
X109450000Y-38981250D02*
X109450000Y-35401250D01*
X116550000Y-38981250D02*
X109450000Y-38981250D01*
X116550000Y-38981250D02*
X116550000Y-35401250D01*
X104110000Y-35401250D02*
X121890000Y-35401250D01*
X121890000Y-35401250D02*
X121890000Y-68421250D01*
X121890000Y-68421250D02*
X104110000Y-68421250D01*
X104110000Y-68421250D02*
X104110000Y-35401250D01*
D12*
X125430000Y-46520000D02*
X125430000Y-42380000D01*
X125430000Y-42380000D02*
X125730000Y-42380000D01*
X128270000Y-42380000D02*
X128570000Y-42380000D01*
X128570000Y-46520000D02*
X128270000Y-46520000D01*
X128570000Y-42380000D02*
X128570000Y-46520000D01*
X125730000Y-46520000D02*
X125430000Y-46520000D01*
X201000000Y-121250000D02*
G75*
G03*
X201000000Y-121250000I-3000000J0D01*
G01*
X202100000Y-113450000D02*
X202100000Y-114050000D01*
X203900000Y-115150000D02*
X192100000Y-115150000D01*
X199300000Y-127350000D02*
X196700000Y-127350000D01*
X198000000Y-120750000D02*
X198000000Y-121750000D01*
X203900000Y-119250000D02*
X203900000Y-115150000D01*
X198500000Y-121250000D02*
X197500000Y-121250000D01*
X194500000Y-127350000D02*
X192100000Y-127350000D01*
X203900000Y-127350000D02*
X201500000Y-127350000D01*
X203900000Y-123250000D02*
X203900000Y-127350000D01*
X192100000Y-119250000D02*
X192100000Y-115150000D01*
X201800000Y-113750000D02*
X202100000Y-113450000D01*
X202100000Y-114050000D02*
X201800000Y-113750000D01*
X192100000Y-127350000D02*
X192100000Y-123250000D01*
X201000000Y-99250000D02*
G75*
G03*
X201000000Y-99250000I-3000000J0D01*
G01*
X202100000Y-91450000D02*
X202100000Y-92050000D01*
X203900000Y-93150000D02*
X192100000Y-93150000D01*
X199300000Y-105350000D02*
X196700000Y-105350000D01*
X198000000Y-98750000D02*
X198000000Y-99750000D01*
X203900000Y-97250000D02*
X203900000Y-93150000D01*
X198500000Y-99250000D02*
X197500000Y-99250000D01*
X194500000Y-105350000D02*
X192100000Y-105350000D01*
X203900000Y-105350000D02*
X201500000Y-105350000D01*
X203900000Y-101250000D02*
X203900000Y-105350000D01*
X192100000Y-97250000D02*
X192100000Y-93150000D01*
X201800000Y-91750000D02*
X202100000Y-91450000D01*
X202100000Y-92050000D02*
X201800000Y-91750000D01*
X192100000Y-105350000D02*
X192100000Y-101250000D01*
X201000000Y-77250000D02*
G75*
G03*
X201000000Y-77250000I-3000000J0D01*
G01*
X202100000Y-69450000D02*
X202100000Y-70050000D01*
X203900000Y-71150000D02*
X192100000Y-71150000D01*
X199300000Y-83350000D02*
X196700000Y-83350000D01*
X198000000Y-76750000D02*
X198000000Y-77750000D01*
X203900000Y-75250000D02*
X203900000Y-71150000D01*
X198500000Y-77250000D02*
X197500000Y-77250000D01*
X194500000Y-83350000D02*
X192100000Y-83350000D01*
X203900000Y-83350000D02*
X201500000Y-83350000D01*
X203900000Y-79250000D02*
X203900000Y-83350000D01*
X192100000Y-75250000D02*
X192100000Y-71150000D01*
X201800000Y-69750000D02*
X202100000Y-69450000D01*
X202100000Y-70050000D02*
X201800000Y-69750000D01*
X192100000Y-83350000D02*
X192100000Y-79250000D01*
X122232500Y-86070000D02*
X122232500Y-81830000D01*
X122232500Y-82550000D02*
X119992500Y-82550000D01*
X122232500Y-82430000D02*
X119992500Y-82430000D01*
X119992500Y-86070000D02*
X122232500Y-86070000D01*
X122232500Y-82670000D02*
X119992500Y-82670000D01*
X121112500Y-81180000D02*
X121112500Y-81830000D01*
X122232500Y-81830000D02*
X119992500Y-81830000D01*
X119992500Y-81830000D02*
X119992500Y-86070000D01*
X121112500Y-86720000D02*
X121112500Y-86070000D01*
X122232500Y-101310000D02*
X122232500Y-97070000D01*
X122232500Y-97790000D02*
X119992500Y-97790000D01*
X122232500Y-97670000D02*
X119992500Y-97670000D01*
X119992500Y-101310000D02*
X122232500Y-101310000D01*
X122232500Y-97910000D02*
X119992500Y-97910000D01*
X121112500Y-96420000D02*
X121112500Y-97070000D01*
X122232500Y-97070000D02*
X119992500Y-97070000D01*
X119992500Y-97070000D02*
X119992500Y-101310000D01*
X121112500Y-101960000D02*
X121112500Y-101310000D01*
X122232500Y-115597500D02*
X122232500Y-111357500D01*
X122232500Y-112077500D02*
X119992500Y-112077500D01*
X122232500Y-111957500D02*
X119992500Y-111957500D01*
X119992500Y-115597500D02*
X122232500Y-115597500D01*
X122232500Y-112197500D02*
X119992500Y-112197500D01*
X121112500Y-110707500D02*
X121112500Y-111357500D01*
X122232500Y-111357500D02*
X119992500Y-111357500D01*
X119992500Y-111357500D02*
X119992500Y-115597500D01*
X121112500Y-116247500D02*
X121112500Y-115597500D01*
X115556250Y-130563750D02*
X115556250Y-129913750D01*
X114436250Y-125673750D02*
X114436250Y-129913750D01*
X116676250Y-125673750D02*
X114436250Y-125673750D01*
X115556250Y-125023750D02*
X115556250Y-125673750D01*
X116676250Y-126513750D02*
X114436250Y-126513750D01*
X114436250Y-129913750D02*
X116676250Y-129913750D01*
X116676250Y-126273750D02*
X114436250Y-126273750D01*
X116676250Y-126393750D02*
X114436250Y-126393750D01*
X116676250Y-129913750D02*
X116676250Y-125673750D01*
X110331250Y-130563750D02*
X110331250Y-129913750D01*
X109211250Y-125673750D02*
X109211250Y-129913750D01*
X111451250Y-125673750D02*
X109211250Y-125673750D01*
X110331250Y-125023750D02*
X110331250Y-125673750D01*
X111451250Y-126513750D02*
X109211250Y-126513750D01*
X109211250Y-129913750D02*
X111451250Y-129913750D01*
X111451250Y-126273750D02*
X109211250Y-126273750D01*
X111451250Y-126393750D02*
X109211250Y-126393750D01*
X111451250Y-129913750D02*
X111451250Y-125673750D01*
X105563750Y-129913750D02*
X105563750Y-125673750D01*
X105563750Y-126393750D02*
X103323750Y-126393750D01*
X105563750Y-126273750D02*
X103323750Y-126273750D01*
X103323750Y-129913750D02*
X105563750Y-129913750D01*
X105563750Y-126513750D02*
X103323750Y-126513750D01*
X104443750Y-125023750D02*
X104443750Y-125673750D01*
X105563750Y-125673750D02*
X103323750Y-125673750D01*
X103323750Y-125673750D02*
X103323750Y-129913750D01*
X104443750Y-130563750D02*
X104443750Y-129913750D01*
X116676250Y-115597500D02*
X116676250Y-111357500D01*
X116676250Y-112077500D02*
X114436250Y-112077500D01*
X116676250Y-111957500D02*
X114436250Y-111957500D01*
X114436250Y-115597500D02*
X116676250Y-115597500D01*
X116676250Y-112197500D02*
X114436250Y-112197500D01*
X115556250Y-110707500D02*
X115556250Y-111357500D01*
X116676250Y-111357500D02*
X114436250Y-111357500D01*
X114436250Y-111357500D02*
X114436250Y-115597500D01*
X115556250Y-116247500D02*
X115556250Y-115597500D01*
X111120000Y-115597500D02*
X111120000Y-111357500D01*
X111120000Y-112077500D02*
X108880000Y-112077500D01*
X111120000Y-111957500D02*
X108880000Y-111957500D01*
X108880000Y-115597500D02*
X111120000Y-115597500D01*
X111120000Y-112197500D02*
X108880000Y-112197500D01*
X110000000Y-110707500D02*
X110000000Y-111357500D01*
X111120000Y-111357500D02*
X108880000Y-111357500D01*
X108880000Y-111357500D02*
X108880000Y-115597500D01*
X110000000Y-116247500D02*
X110000000Y-115597500D01*
X105563750Y-115597500D02*
X105563750Y-111357500D01*
X105563750Y-112077500D02*
X103323750Y-112077500D01*
X105563750Y-111957500D02*
X103323750Y-111957500D01*
X103323750Y-115597500D02*
X105563750Y-115597500D01*
X105563750Y-112197500D02*
X103323750Y-112197500D01*
X104443750Y-110707500D02*
X104443750Y-111357500D01*
X105563750Y-111357500D02*
X103323750Y-111357500D01*
X103323750Y-111357500D02*
X103323750Y-115597500D01*
X104443750Y-116247500D02*
X104443750Y-115597500D01*
X116676250Y-101310000D02*
X116676250Y-97070000D01*
X116676250Y-97790000D02*
X114436250Y-97790000D01*
X116676250Y-97670000D02*
X114436250Y-97670000D01*
X114436250Y-101310000D02*
X116676250Y-101310000D01*
X116676250Y-97910000D02*
X114436250Y-97910000D01*
X115556250Y-96420000D02*
X115556250Y-97070000D01*
X116676250Y-97070000D02*
X114436250Y-97070000D01*
X114436250Y-97070000D02*
X114436250Y-101310000D01*
X115556250Y-101960000D02*
X115556250Y-101310000D01*
X110000000Y-101960000D02*
X110000000Y-101310000D01*
X108880000Y-97070000D02*
X108880000Y-101310000D01*
X111120000Y-97070000D02*
X108880000Y-97070000D01*
X110000000Y-96420000D02*
X110000000Y-97070000D01*
X111120000Y-97910000D02*
X108880000Y-97910000D01*
X108880000Y-101310000D02*
X111120000Y-101310000D01*
X111120000Y-97670000D02*
X108880000Y-97670000D01*
X111120000Y-97790000D02*
X108880000Y-97790000D01*
X111120000Y-101310000D02*
X111120000Y-97070000D01*
X105563750Y-101310000D02*
X105563750Y-97070000D01*
X105563750Y-97790000D02*
X103323750Y-97790000D01*
X105563750Y-97670000D02*
X103323750Y-97670000D01*
X103323750Y-101310000D02*
X105563750Y-101310000D01*
X105563750Y-97910000D02*
X103323750Y-97910000D01*
X104443750Y-96420000D02*
X104443750Y-97070000D01*
X105563750Y-97070000D02*
X103323750Y-97070000D01*
X103323750Y-97070000D02*
X103323750Y-101310000D01*
X104443750Y-101960000D02*
X104443750Y-101310000D01*
X116676250Y-86070000D02*
X116676250Y-81830000D01*
X116676250Y-82550000D02*
X114436250Y-82550000D01*
X116676250Y-82430000D02*
X114436250Y-82430000D01*
X114436250Y-86070000D02*
X116676250Y-86070000D01*
X116676250Y-82670000D02*
X114436250Y-82670000D01*
X115556250Y-81180000D02*
X115556250Y-81830000D01*
X116676250Y-81830000D02*
X114436250Y-81830000D01*
X114436250Y-81830000D02*
X114436250Y-86070000D01*
X115556250Y-86720000D02*
X115556250Y-86070000D01*
X111120000Y-86070000D02*
X111120000Y-81830000D01*
X111120000Y-82550000D02*
X108880000Y-82550000D01*
X111120000Y-82430000D02*
X108880000Y-82430000D01*
X108880000Y-86070000D02*
X111120000Y-86070000D01*
X111120000Y-82670000D02*
X108880000Y-82670000D01*
X110000000Y-81180000D02*
X110000000Y-81830000D01*
X111120000Y-81830000D02*
X108880000Y-81830000D01*
X108880000Y-81830000D02*
X108880000Y-86070000D01*
X110000000Y-86720000D02*
X110000000Y-86070000D01*
X105563750Y-86070000D02*
X105563750Y-81830000D01*
X105563750Y-82550000D02*
X103323750Y-82550000D01*
X105563750Y-82430000D02*
X103323750Y-82430000D01*
X103323750Y-86070000D02*
X105563750Y-86070000D01*
X105563750Y-82670000D02*
X103323750Y-82670000D01*
X104443750Y-81180000D02*
X104443750Y-81830000D01*
X105563750Y-81830000D02*
X103323750Y-81830000D01*
X103323750Y-81830000D02*
X103323750Y-86070000D01*
X104443750Y-86720000D02*
X104443750Y-86070000D01*
%LPC*%
D13*
X147947592Y-60772480D03*
D14*
X147947592Y-60772480D03*
D13*
X171153689Y-60772695D03*
D14*
X171153689Y-60772695D03*
D13*
X171158857Y-37656395D03*
D14*
X171158857Y-37656395D03*
D13*
X147943149Y-37649935D03*
D14*
X147943149Y-37649935D03*
D15*
X163243750Y-37262500D03*
X160703750Y-37262500D03*
X155623750Y-37262500D03*
X158163750Y-37262500D03*
D13*
X128587500Y-117475000D03*
D14*
X128587500Y-117475000D03*
D13*
X128587500Y-53181250D03*
D14*
X128587500Y-53181250D03*
X101000000Y-141000000D03*
D13*
X101000000Y-141000000D03*
X101000000Y-39000000D03*
D14*
X101000000Y-39000000D03*
X203000000Y-141000000D03*
D13*
X203000000Y-141000000D03*
X203000000Y-39000000D03*
D14*
X203000000Y-39000000D03*
D16*
X127000000Y-46550000D03*
X127000000Y-42350000D03*
D17*
X200500000Y-128250000D03*
X195500000Y-128250000D03*
D18*
X203600000Y-121250000D03*
X192400000Y-121250000D03*
D17*
X198000000Y-113750000D03*
X195500000Y-113750000D03*
D19*
X200500000Y-113750000D03*
D17*
X200500000Y-106250000D03*
X195500000Y-106250000D03*
D18*
X203600000Y-99250000D03*
X192400000Y-99250000D03*
D17*
X198000000Y-91750000D03*
X195500000Y-91750000D03*
D19*
X200500000Y-91750000D03*
D17*
X200500000Y-84250000D03*
X195500000Y-84250000D03*
D18*
X203600000Y-77250000D03*
X192400000Y-77250000D03*
D17*
X198000000Y-69750000D03*
X195500000Y-69750000D03*
D19*
X200500000Y-69750000D03*
D20*
X142875000Y-127635000D03*
X136525000Y-130175000D03*
D21*
X135255000Y-132715000D03*
D22*
X140335000Y-132715000D03*
D21*
X145415000Y-132715000D03*
D20*
X161925000Y-127635000D03*
X155575000Y-130175000D03*
D21*
X154305000Y-132715000D03*
D22*
X159385000Y-132715000D03*
D21*
X164465000Y-132715000D03*
D20*
X180975000Y-127635000D03*
X174625000Y-130175000D03*
D21*
X173355000Y-132715000D03*
D22*
X178435000Y-132715000D03*
D21*
X183515000Y-132715000D03*
D20*
X142875000Y-108585000D03*
X136525000Y-111125000D03*
D21*
X135255000Y-113665000D03*
D22*
X140335000Y-113665000D03*
D21*
X145415000Y-113665000D03*
D20*
X161925000Y-108585000D03*
X155575000Y-111125000D03*
D21*
X154305000Y-113665000D03*
D22*
X159385000Y-113665000D03*
D21*
X164465000Y-113665000D03*
D20*
X180975000Y-108585000D03*
X174625000Y-111125000D03*
D21*
X173355000Y-113665000D03*
D22*
X178435000Y-113665000D03*
D21*
X183515000Y-113665000D03*
D20*
X142875000Y-89535000D03*
X136525000Y-92075000D03*
D21*
X135255000Y-94615000D03*
D22*
X140335000Y-94615000D03*
D21*
X145415000Y-94615000D03*
D20*
X161925000Y-89535000D03*
X155575000Y-92075000D03*
D21*
X154305000Y-94615000D03*
D22*
X159385000Y-94615000D03*
D21*
X164465000Y-94615000D03*
D20*
X180975000Y-89535000D03*
X174625000Y-92075000D03*
D21*
X173355000Y-94615000D03*
D22*
X178435000Y-94615000D03*
D21*
X183515000Y-94615000D03*
D20*
X142875000Y-70485000D03*
X136525000Y-73025000D03*
D21*
X135255000Y-75565000D03*
D22*
X140335000Y-75565000D03*
D21*
X145415000Y-75565000D03*
X164465000Y-75565000D03*
D22*
X159385000Y-75565000D03*
D21*
X154305000Y-75565000D03*
D20*
X155575000Y-73025000D03*
X161925000Y-70485000D03*
X180975000Y-70485000D03*
X174625000Y-73025000D03*
D21*
X173355000Y-75565000D03*
D22*
X178435000Y-75565000D03*
D21*
X183515000Y-75565000D03*
D23*
X121112500Y-80140000D03*
D24*
X121112500Y-87760000D03*
D23*
X121112500Y-95380000D03*
D24*
X121112500Y-103000000D03*
D23*
X121112500Y-109667500D03*
D24*
X121112500Y-117287500D03*
X115556250Y-131603750D03*
D23*
X115556250Y-123983750D03*
D24*
X110331250Y-131603750D03*
D23*
X110331250Y-123983750D03*
X104443750Y-123983750D03*
D24*
X104443750Y-131603750D03*
D23*
X115556250Y-109667500D03*
D24*
X115556250Y-117287500D03*
D23*
X110000000Y-109667500D03*
D24*
X110000000Y-117287500D03*
D23*
X104443750Y-109667500D03*
D24*
X104443750Y-117287500D03*
D23*
X115556250Y-95380000D03*
D24*
X115556250Y-103000000D03*
X110000000Y-103000000D03*
D23*
X110000000Y-95380000D03*
X104443750Y-95380000D03*
D24*
X104443750Y-103000000D03*
D23*
X115556250Y-80140000D03*
D24*
X115556250Y-87760000D03*
D23*
X110000000Y-80140000D03*
D24*
X110000000Y-87760000D03*
D23*
X104443750Y-80140000D03*
D24*
X104443750Y-87760000D03*
%LPD*%
M02*
