G04 #@! TF.GenerationSoftware,KiCad,Pcbnew,7.0.5*
G04 #@! TF.CreationDate,2023-07-12T22:01:21-07:00*
G04 #@! TF.ProjectId,Custom_KeyPad,43757374-6f6d-45f4-9b65-795061642e6b,rev?*
G04 #@! TF.SameCoordinates,Original*
G04 #@! TF.FileFunction,Legend,Bot*
G04 #@! TF.FilePolarity,Positive*
%FSLAX46Y46*%
G04 Gerber Fmt 4.6, Leading zero omitted, Abs format (unit mm)*
G04 Created by KiCad (PCBNEW 7.0.5) date 2023-07-12 22:01:21*
%MOMM*%
%LPD*%
G01*
G04 APERTURE LIST*
G04 Aperture macros list*
%AMRoundRect*
0 Rectangle with rounded corners*
0 $1 Rounding radius*
0 $2 $3 $4 $5 $6 $7 $8 $9 X,Y pos of 4 corners*
0 Add a 4 corners polygon primitive as box body*
4,1,4,$2,$3,$4,$5,$6,$7,$8,$9,$2,$3,0*
0 Add four circle primitives for the rounded corners*
1,1,$1+$1,$2,$3*
1,1,$1+$1,$4,$5*
1,1,$1+$1,$6,$7*
1,1,$1+$1,$8,$9*
0 Add four rect primitives between the rounded corners*
20,1,$1+$1,$2,$3,$4,$5,0*
20,1,$1+$1,$4,$5,$6,$7,0*
20,1,$1+$1,$6,$7,$8,$9,0*
20,1,$1+$1,$8,$9,$2,$3,0*%
G04 Aperture macros list end*
%ADD10C,0.150000*%
%ADD11C,0.120000*%
%ADD12C,3.500000*%
%ADD13C,2.600000*%
%ADD14O,1.600000X2.000000*%
%ADD15C,1.800000*%
%ADD16RoundRect,0.450000X-0.450000X-0.450000X0.450000X-0.450000X0.450000X0.450000X-0.450000X0.450000X0*%
%ADD17C,2.000000*%
%ADD18R,2.000000X3.200000*%
%ADD19R,2.000000X2.000000*%
%ADD20C,3.300000*%
%ADD21RoundRect,0.250000X1.025000X1.000000X-1.025000X1.000000X-1.025000X-1.000000X1.025000X-1.000000X0*%
%ADD22C,1.750000*%
%ADD23C,3.987800*%
%ADD24R,1.500000X0.900000*%
%ADD25R,0.900000X1.500000*%
%ADD26R,1.600000X1.600000*%
%ADD27O,1.600000X1.600000*%
%ADD28RoundRect,0.100000X0.130000X0.100000X-0.130000X0.100000X-0.130000X-0.100000X0.130000X-0.100000X0*%
%ADD29RoundRect,0.100000X-0.100000X0.130000X-0.100000X-0.130000X0.100000X-0.130000X0.100000X0.130000X0*%
G04 APERTURE END LIST*
D10*
X146346904Y-131419819D02*
X146346904Y-130419819D01*
X146346904Y-130419819D02*
X146013571Y-131134104D01*
X146013571Y-131134104D02*
X145680238Y-130419819D01*
X145680238Y-130419819D02*
X145680238Y-131419819D01*
X145299285Y-130419819D02*
X144632619Y-131419819D01*
X144632619Y-130419819D02*
X145299285Y-131419819D01*
X143727857Y-131419819D02*
X144299285Y-131419819D01*
X144013571Y-131419819D02*
X144013571Y-130419819D01*
X144013571Y-130419819D02*
X144108809Y-130562676D01*
X144108809Y-130562676D02*
X144204047Y-130657914D01*
X144204047Y-130657914D02*
X144299285Y-130705533D01*
X143346904Y-130515057D02*
X143299285Y-130467438D01*
X143299285Y-130467438D02*
X143204047Y-130419819D01*
X143204047Y-130419819D02*
X142965952Y-130419819D01*
X142965952Y-130419819D02*
X142870714Y-130467438D01*
X142870714Y-130467438D02*
X142823095Y-130515057D01*
X142823095Y-130515057D02*
X142775476Y-130610295D01*
X142775476Y-130610295D02*
X142775476Y-130705533D01*
X142775476Y-130705533D02*
X142823095Y-130848390D01*
X142823095Y-130848390D02*
X143394523Y-131419819D01*
X143394523Y-131419819D02*
X142775476Y-131419819D01*
X165396904Y-131419819D02*
X165396904Y-130419819D01*
X165396904Y-130419819D02*
X165063571Y-131134104D01*
X165063571Y-131134104D02*
X164730238Y-130419819D01*
X164730238Y-130419819D02*
X164730238Y-131419819D01*
X164349285Y-130419819D02*
X163682619Y-131419819D01*
X163682619Y-130419819D02*
X164349285Y-131419819D01*
X162777857Y-131419819D02*
X163349285Y-131419819D01*
X163063571Y-131419819D02*
X163063571Y-130419819D01*
X163063571Y-130419819D02*
X163158809Y-130562676D01*
X163158809Y-130562676D02*
X163254047Y-130657914D01*
X163254047Y-130657914D02*
X163349285Y-130705533D01*
X161825476Y-131419819D02*
X162396904Y-131419819D01*
X162111190Y-131419819D02*
X162111190Y-130419819D01*
X162111190Y-130419819D02*
X162206428Y-130562676D01*
X162206428Y-130562676D02*
X162301666Y-130657914D01*
X162301666Y-130657914D02*
X162396904Y-130705533D01*
X184446904Y-131419819D02*
X184446904Y-130419819D01*
X184446904Y-130419819D02*
X184113571Y-131134104D01*
X184113571Y-131134104D02*
X183780238Y-130419819D01*
X183780238Y-130419819D02*
X183780238Y-131419819D01*
X183399285Y-130419819D02*
X182732619Y-131419819D01*
X182732619Y-130419819D02*
X183399285Y-131419819D01*
X181827857Y-131419819D02*
X182399285Y-131419819D01*
X182113571Y-131419819D02*
X182113571Y-130419819D01*
X182113571Y-130419819D02*
X182208809Y-130562676D01*
X182208809Y-130562676D02*
X182304047Y-130657914D01*
X182304047Y-130657914D02*
X182399285Y-130705533D01*
X181208809Y-130419819D02*
X181113571Y-130419819D01*
X181113571Y-130419819D02*
X181018333Y-130467438D01*
X181018333Y-130467438D02*
X180970714Y-130515057D01*
X180970714Y-130515057D02*
X180923095Y-130610295D01*
X180923095Y-130610295D02*
X180875476Y-130800771D01*
X180875476Y-130800771D02*
X180875476Y-131038866D01*
X180875476Y-131038866D02*
X180923095Y-131229342D01*
X180923095Y-131229342D02*
X180970714Y-131324580D01*
X180970714Y-131324580D02*
X181018333Y-131372200D01*
X181018333Y-131372200D02*
X181113571Y-131419819D01*
X181113571Y-131419819D02*
X181208809Y-131419819D01*
X181208809Y-131419819D02*
X181304047Y-131372200D01*
X181304047Y-131372200D02*
X181351666Y-131324580D01*
X181351666Y-131324580D02*
X181399285Y-131229342D01*
X181399285Y-131229342D02*
X181446904Y-131038866D01*
X181446904Y-131038866D02*
X181446904Y-130800771D01*
X181446904Y-130800771D02*
X181399285Y-130610295D01*
X181399285Y-130610295D02*
X181351666Y-130515057D01*
X181351666Y-130515057D02*
X181304047Y-130467438D01*
X181304047Y-130467438D02*
X181208809Y-130419819D01*
X145870713Y-112369819D02*
X145870713Y-111369819D01*
X145870713Y-111369819D02*
X145537380Y-112084104D01*
X145537380Y-112084104D02*
X145204047Y-111369819D01*
X145204047Y-111369819D02*
X145204047Y-112369819D01*
X144823094Y-111369819D02*
X144156428Y-112369819D01*
X144156428Y-111369819D02*
X144823094Y-112369819D01*
X143727856Y-112369819D02*
X143537380Y-112369819D01*
X143537380Y-112369819D02*
X143442142Y-112322200D01*
X143442142Y-112322200D02*
X143394523Y-112274580D01*
X143394523Y-112274580D02*
X143299285Y-112131723D01*
X143299285Y-112131723D02*
X143251666Y-111941247D01*
X143251666Y-111941247D02*
X143251666Y-111560295D01*
X143251666Y-111560295D02*
X143299285Y-111465057D01*
X143299285Y-111465057D02*
X143346904Y-111417438D01*
X143346904Y-111417438D02*
X143442142Y-111369819D01*
X143442142Y-111369819D02*
X143632618Y-111369819D01*
X143632618Y-111369819D02*
X143727856Y-111417438D01*
X143727856Y-111417438D02*
X143775475Y-111465057D01*
X143775475Y-111465057D02*
X143823094Y-111560295D01*
X143823094Y-111560295D02*
X143823094Y-111798390D01*
X143823094Y-111798390D02*
X143775475Y-111893628D01*
X143775475Y-111893628D02*
X143727856Y-111941247D01*
X143727856Y-111941247D02*
X143632618Y-111988866D01*
X143632618Y-111988866D02*
X143442142Y-111988866D01*
X143442142Y-111988866D02*
X143346904Y-111941247D01*
X143346904Y-111941247D02*
X143299285Y-111893628D01*
X143299285Y-111893628D02*
X143251666Y-111798390D01*
X164920713Y-112369819D02*
X164920713Y-111369819D01*
X164920713Y-111369819D02*
X164587380Y-112084104D01*
X164587380Y-112084104D02*
X164254047Y-111369819D01*
X164254047Y-111369819D02*
X164254047Y-112369819D01*
X163873094Y-111369819D02*
X163206428Y-112369819D01*
X163206428Y-111369819D02*
X163873094Y-112369819D01*
X162682618Y-111798390D02*
X162777856Y-111750771D01*
X162777856Y-111750771D02*
X162825475Y-111703152D01*
X162825475Y-111703152D02*
X162873094Y-111607914D01*
X162873094Y-111607914D02*
X162873094Y-111560295D01*
X162873094Y-111560295D02*
X162825475Y-111465057D01*
X162825475Y-111465057D02*
X162777856Y-111417438D01*
X162777856Y-111417438D02*
X162682618Y-111369819D01*
X162682618Y-111369819D02*
X162492142Y-111369819D01*
X162492142Y-111369819D02*
X162396904Y-111417438D01*
X162396904Y-111417438D02*
X162349285Y-111465057D01*
X162349285Y-111465057D02*
X162301666Y-111560295D01*
X162301666Y-111560295D02*
X162301666Y-111607914D01*
X162301666Y-111607914D02*
X162349285Y-111703152D01*
X162349285Y-111703152D02*
X162396904Y-111750771D01*
X162396904Y-111750771D02*
X162492142Y-111798390D01*
X162492142Y-111798390D02*
X162682618Y-111798390D01*
X162682618Y-111798390D02*
X162777856Y-111846009D01*
X162777856Y-111846009D02*
X162825475Y-111893628D01*
X162825475Y-111893628D02*
X162873094Y-111988866D01*
X162873094Y-111988866D02*
X162873094Y-112179342D01*
X162873094Y-112179342D02*
X162825475Y-112274580D01*
X162825475Y-112274580D02*
X162777856Y-112322200D01*
X162777856Y-112322200D02*
X162682618Y-112369819D01*
X162682618Y-112369819D02*
X162492142Y-112369819D01*
X162492142Y-112369819D02*
X162396904Y-112322200D01*
X162396904Y-112322200D02*
X162349285Y-112274580D01*
X162349285Y-112274580D02*
X162301666Y-112179342D01*
X162301666Y-112179342D02*
X162301666Y-111988866D01*
X162301666Y-111988866D02*
X162349285Y-111893628D01*
X162349285Y-111893628D02*
X162396904Y-111846009D01*
X162396904Y-111846009D02*
X162492142Y-111798390D01*
X183970713Y-112369819D02*
X183970713Y-111369819D01*
X183970713Y-111369819D02*
X183637380Y-112084104D01*
X183637380Y-112084104D02*
X183304047Y-111369819D01*
X183304047Y-111369819D02*
X183304047Y-112369819D01*
X182923094Y-111369819D02*
X182256428Y-112369819D01*
X182256428Y-111369819D02*
X182923094Y-112369819D01*
X181970713Y-111369819D02*
X181304047Y-111369819D01*
X181304047Y-111369819D02*
X181732618Y-112369819D01*
X145870713Y-93319819D02*
X145870713Y-92319819D01*
X145870713Y-92319819D02*
X145537380Y-93034104D01*
X145537380Y-93034104D02*
X145204047Y-92319819D01*
X145204047Y-92319819D02*
X145204047Y-93319819D01*
X144823094Y-92319819D02*
X144156428Y-93319819D01*
X144156428Y-92319819D02*
X144823094Y-93319819D01*
X143346904Y-92319819D02*
X143537380Y-92319819D01*
X143537380Y-92319819D02*
X143632618Y-92367438D01*
X143632618Y-92367438D02*
X143680237Y-92415057D01*
X143680237Y-92415057D02*
X143775475Y-92557914D01*
X143775475Y-92557914D02*
X143823094Y-92748390D01*
X143823094Y-92748390D02*
X143823094Y-93129342D01*
X143823094Y-93129342D02*
X143775475Y-93224580D01*
X143775475Y-93224580D02*
X143727856Y-93272200D01*
X143727856Y-93272200D02*
X143632618Y-93319819D01*
X143632618Y-93319819D02*
X143442142Y-93319819D01*
X143442142Y-93319819D02*
X143346904Y-93272200D01*
X143346904Y-93272200D02*
X143299285Y-93224580D01*
X143299285Y-93224580D02*
X143251666Y-93129342D01*
X143251666Y-93129342D02*
X143251666Y-92891247D01*
X143251666Y-92891247D02*
X143299285Y-92796009D01*
X143299285Y-92796009D02*
X143346904Y-92748390D01*
X143346904Y-92748390D02*
X143442142Y-92700771D01*
X143442142Y-92700771D02*
X143632618Y-92700771D01*
X143632618Y-92700771D02*
X143727856Y-92748390D01*
X143727856Y-92748390D02*
X143775475Y-92796009D01*
X143775475Y-92796009D02*
X143823094Y-92891247D01*
X164920713Y-93319819D02*
X164920713Y-92319819D01*
X164920713Y-92319819D02*
X164587380Y-93034104D01*
X164587380Y-93034104D02*
X164254047Y-92319819D01*
X164254047Y-92319819D02*
X164254047Y-93319819D01*
X163873094Y-92319819D02*
X163206428Y-93319819D01*
X163206428Y-92319819D02*
X163873094Y-93319819D01*
X162349285Y-92319819D02*
X162825475Y-92319819D01*
X162825475Y-92319819D02*
X162873094Y-92796009D01*
X162873094Y-92796009D02*
X162825475Y-92748390D01*
X162825475Y-92748390D02*
X162730237Y-92700771D01*
X162730237Y-92700771D02*
X162492142Y-92700771D01*
X162492142Y-92700771D02*
X162396904Y-92748390D01*
X162396904Y-92748390D02*
X162349285Y-92796009D01*
X162349285Y-92796009D02*
X162301666Y-92891247D01*
X162301666Y-92891247D02*
X162301666Y-93129342D01*
X162301666Y-93129342D02*
X162349285Y-93224580D01*
X162349285Y-93224580D02*
X162396904Y-93272200D01*
X162396904Y-93272200D02*
X162492142Y-93319819D01*
X162492142Y-93319819D02*
X162730237Y-93319819D01*
X162730237Y-93319819D02*
X162825475Y-93272200D01*
X162825475Y-93272200D02*
X162873094Y-93224580D01*
X183970713Y-93319819D02*
X183970713Y-92319819D01*
X183970713Y-92319819D02*
X183637380Y-93034104D01*
X183637380Y-93034104D02*
X183304047Y-92319819D01*
X183304047Y-92319819D02*
X183304047Y-93319819D01*
X182923094Y-92319819D02*
X182256428Y-93319819D01*
X182256428Y-92319819D02*
X182923094Y-93319819D01*
X181446904Y-92653152D02*
X181446904Y-93319819D01*
X181684999Y-92272200D02*
X181923094Y-92986485D01*
X181923094Y-92986485D02*
X181304047Y-92986485D01*
X145870713Y-74269819D02*
X145870713Y-73269819D01*
X145870713Y-73269819D02*
X145537380Y-73984104D01*
X145537380Y-73984104D02*
X145204047Y-73269819D01*
X145204047Y-73269819D02*
X145204047Y-74269819D01*
X144823094Y-73269819D02*
X144156428Y-74269819D01*
X144156428Y-73269819D02*
X144823094Y-74269819D01*
X143870713Y-73269819D02*
X143251666Y-73269819D01*
X143251666Y-73269819D02*
X143584999Y-73650771D01*
X143584999Y-73650771D02*
X143442142Y-73650771D01*
X143442142Y-73650771D02*
X143346904Y-73698390D01*
X143346904Y-73698390D02*
X143299285Y-73746009D01*
X143299285Y-73746009D02*
X143251666Y-73841247D01*
X143251666Y-73841247D02*
X143251666Y-74079342D01*
X143251666Y-74079342D02*
X143299285Y-74174580D01*
X143299285Y-74174580D02*
X143346904Y-74222200D01*
X143346904Y-74222200D02*
X143442142Y-74269819D01*
X143442142Y-74269819D02*
X143727856Y-74269819D01*
X143727856Y-74269819D02*
X143823094Y-74222200D01*
X143823094Y-74222200D02*
X143870713Y-74174580D01*
X164920713Y-74269819D02*
X164920713Y-73269819D01*
X164920713Y-73269819D02*
X164587380Y-73984104D01*
X164587380Y-73984104D02*
X164254047Y-73269819D01*
X164254047Y-73269819D02*
X164254047Y-74269819D01*
X163873094Y-73269819D02*
X163206428Y-74269819D01*
X163206428Y-73269819D02*
X163873094Y-74269819D01*
X162873094Y-73365057D02*
X162825475Y-73317438D01*
X162825475Y-73317438D02*
X162730237Y-73269819D01*
X162730237Y-73269819D02*
X162492142Y-73269819D01*
X162492142Y-73269819D02*
X162396904Y-73317438D01*
X162396904Y-73317438D02*
X162349285Y-73365057D01*
X162349285Y-73365057D02*
X162301666Y-73460295D01*
X162301666Y-73460295D02*
X162301666Y-73555533D01*
X162301666Y-73555533D02*
X162349285Y-73698390D01*
X162349285Y-73698390D02*
X162920713Y-74269819D01*
X162920713Y-74269819D02*
X162301666Y-74269819D01*
X183970713Y-74269819D02*
X183970713Y-73269819D01*
X183970713Y-73269819D02*
X183637380Y-73984104D01*
X183637380Y-73984104D02*
X183304047Y-73269819D01*
X183304047Y-73269819D02*
X183304047Y-74269819D01*
X182923094Y-73269819D02*
X182256428Y-74269819D01*
X182256428Y-73269819D02*
X182923094Y-74269819D01*
X181351666Y-74269819D02*
X181923094Y-74269819D01*
X181637380Y-74269819D02*
X181637380Y-73269819D01*
X181637380Y-73269819D02*
X181732618Y-73412676D01*
X181732618Y-73412676D02*
X181827856Y-73507914D01*
X181827856Y-73507914D02*
X181923094Y-73555533D01*
X164201785Y-98867319D02*
X164773213Y-98867319D01*
X164487499Y-98867319D02*
X164487499Y-97867319D01*
X164487499Y-97867319D02*
X164582737Y-98010176D01*
X164582737Y-98010176D02*
X164677975Y-98105414D01*
X164677975Y-98105414D02*
X164773213Y-98153033D01*
X125854819Y-127104464D02*
X125854819Y-126533036D01*
X125854819Y-126818750D02*
X124854819Y-126818750D01*
X124854819Y-126818750D02*
X124997676Y-126723512D01*
X124997676Y-126723512D02*
X125092914Y-126628274D01*
X125092914Y-126628274D02*
X125140533Y-126533036D01*
X194117319Y-131073214D02*
X194117319Y-130501786D01*
X194117319Y-130787500D02*
X193117319Y-130787500D01*
X193117319Y-130787500D02*
X193260176Y-130692262D01*
X193260176Y-130692262D02*
X193355414Y-130597024D01*
X193355414Y-130597024D02*
X193403033Y-130501786D01*
X190942319Y-53285714D02*
X190942319Y-52714286D01*
X190942319Y-53000000D02*
X189942319Y-53000000D01*
X189942319Y-53000000D02*
X190085176Y-52904762D01*
X190085176Y-52904762D02*
X190180414Y-52809524D01*
X190180414Y-52809524D02*
X190228033Y-52714286D01*
X132998569Y-53285714D02*
X132998569Y-52714286D01*
X132998569Y-53000000D02*
X131998569Y-53000000D01*
X131998569Y-53000000D02*
X132141426Y-52904762D01*
X132141426Y-52904762D02*
X132236664Y-52809524D01*
X132236664Y-52809524D02*
X132284283Y-52714286D01*
X160504166Y-105134580D02*
X160551785Y-105182200D01*
X160551785Y-105182200D02*
X160694642Y-105229819D01*
X160694642Y-105229819D02*
X160789880Y-105229819D01*
X160789880Y-105229819D02*
X160932737Y-105182200D01*
X160932737Y-105182200D02*
X161027975Y-105086961D01*
X161027975Y-105086961D02*
X161075594Y-104991723D01*
X161075594Y-104991723D02*
X161123213Y-104801247D01*
X161123213Y-104801247D02*
X161123213Y-104658390D01*
X161123213Y-104658390D02*
X161075594Y-104467914D01*
X161075594Y-104467914D02*
X161027975Y-104372676D01*
X161027975Y-104372676D02*
X160932737Y-104277438D01*
X160932737Y-104277438D02*
X160789880Y-104229819D01*
X160789880Y-104229819D02*
X160694642Y-104229819D01*
X160694642Y-104229819D02*
X160551785Y-104277438D01*
X160551785Y-104277438D02*
X160504166Y-104325057D01*
X159599404Y-104229819D02*
X160075594Y-104229819D01*
X160075594Y-104229819D02*
X160123213Y-104706009D01*
X160123213Y-104706009D02*
X160075594Y-104658390D01*
X160075594Y-104658390D02*
X159980356Y-104610771D01*
X159980356Y-104610771D02*
X159742261Y-104610771D01*
X159742261Y-104610771D02*
X159647023Y-104658390D01*
X159647023Y-104658390D02*
X159599404Y-104706009D01*
X159599404Y-104706009D02*
X159551785Y-104801247D01*
X159551785Y-104801247D02*
X159551785Y-105039342D01*
X159551785Y-105039342D02*
X159599404Y-105134580D01*
X159599404Y-105134580D02*
X159647023Y-105182200D01*
X159647023Y-105182200D02*
X159742261Y-105229819D01*
X159742261Y-105229819D02*
X159980356Y-105229819D01*
X159980356Y-105229819D02*
X160075594Y-105182200D01*
X160075594Y-105182200D02*
X160123213Y-105134580D01*
X131328330Y-129214583D02*
X131375950Y-129166964D01*
X131375950Y-129166964D02*
X131423569Y-129024107D01*
X131423569Y-129024107D02*
X131423569Y-128928869D01*
X131423569Y-128928869D02*
X131375950Y-128786012D01*
X131375950Y-128786012D02*
X131280711Y-128690774D01*
X131280711Y-128690774D02*
X131185473Y-128643155D01*
X131185473Y-128643155D02*
X130994997Y-128595536D01*
X130994997Y-128595536D02*
X130852140Y-128595536D01*
X130852140Y-128595536D02*
X130661664Y-128643155D01*
X130661664Y-128643155D02*
X130566426Y-128690774D01*
X130566426Y-128690774D02*
X130471188Y-128786012D01*
X130471188Y-128786012D02*
X130423569Y-128928869D01*
X130423569Y-128928869D02*
X130423569Y-129024107D01*
X130423569Y-129024107D02*
X130471188Y-129166964D01*
X130471188Y-129166964D02*
X130518807Y-129214583D01*
X130756902Y-130071726D02*
X131423569Y-130071726D01*
X130375950Y-129833631D02*
X131090235Y-129595536D01*
X131090235Y-129595536D02*
X131090235Y-130214583D01*
X190603330Y-135244583D02*
X190650950Y-135196964D01*
X190650950Y-135196964D02*
X190698569Y-135054107D01*
X190698569Y-135054107D02*
X190698569Y-134958869D01*
X190698569Y-134958869D02*
X190650950Y-134816012D01*
X190650950Y-134816012D02*
X190555711Y-134720774D01*
X190555711Y-134720774D02*
X190460473Y-134673155D01*
X190460473Y-134673155D02*
X190269997Y-134625536D01*
X190269997Y-134625536D02*
X190127140Y-134625536D01*
X190127140Y-134625536D02*
X189936664Y-134673155D01*
X189936664Y-134673155D02*
X189841426Y-134720774D01*
X189841426Y-134720774D02*
X189746188Y-134816012D01*
X189746188Y-134816012D02*
X189698569Y-134958869D01*
X189698569Y-134958869D02*
X189698569Y-135054107D01*
X189698569Y-135054107D02*
X189746188Y-135196964D01*
X189746188Y-135196964D02*
X189793807Y-135244583D01*
X189698569Y-135577917D02*
X189698569Y-136196964D01*
X189698569Y-136196964D02*
X190079521Y-135863631D01*
X190079521Y-135863631D02*
X190079521Y-136006488D01*
X190079521Y-136006488D02*
X190127140Y-136101726D01*
X190127140Y-136101726D02*
X190174759Y-136149345D01*
X190174759Y-136149345D02*
X190269997Y-136196964D01*
X190269997Y-136196964D02*
X190508092Y-136196964D01*
X190508092Y-136196964D02*
X190603330Y-136149345D01*
X190603330Y-136149345D02*
X190650950Y-136101726D01*
X190650950Y-136101726D02*
X190698569Y-136006488D01*
X190698569Y-136006488D02*
X190698569Y-135720774D01*
X190698569Y-135720774D02*
X190650950Y-135625536D01*
X190650950Y-135625536D02*
X190603330Y-135577917D01*
X187428330Y-56663333D02*
X187475950Y-56615714D01*
X187475950Y-56615714D02*
X187523569Y-56472857D01*
X187523569Y-56472857D02*
X187523569Y-56377619D01*
X187523569Y-56377619D02*
X187475950Y-56234762D01*
X187475950Y-56234762D02*
X187380711Y-56139524D01*
X187380711Y-56139524D02*
X187285473Y-56091905D01*
X187285473Y-56091905D02*
X187094997Y-56044286D01*
X187094997Y-56044286D02*
X186952140Y-56044286D01*
X186952140Y-56044286D02*
X186761664Y-56091905D01*
X186761664Y-56091905D02*
X186666426Y-56139524D01*
X186666426Y-56139524D02*
X186571188Y-56234762D01*
X186571188Y-56234762D02*
X186523569Y-56377619D01*
X186523569Y-56377619D02*
X186523569Y-56472857D01*
X186523569Y-56472857D02*
X186571188Y-56615714D01*
X186571188Y-56615714D02*
X186618807Y-56663333D01*
X186618807Y-57044286D02*
X186571188Y-57091905D01*
X186571188Y-57091905D02*
X186523569Y-57187143D01*
X186523569Y-57187143D02*
X186523569Y-57425238D01*
X186523569Y-57425238D02*
X186571188Y-57520476D01*
X186571188Y-57520476D02*
X186618807Y-57568095D01*
X186618807Y-57568095D02*
X186714045Y-57615714D01*
X186714045Y-57615714D02*
X186809283Y-57615714D01*
X186809283Y-57615714D02*
X186952140Y-57568095D01*
X186952140Y-57568095D02*
X187523569Y-56996667D01*
X187523569Y-56996667D02*
X187523569Y-57615714D01*
X128690830Y-57328333D02*
X128738450Y-57280714D01*
X128738450Y-57280714D02*
X128786069Y-57137857D01*
X128786069Y-57137857D02*
X128786069Y-57042619D01*
X128786069Y-57042619D02*
X128738450Y-56899762D01*
X128738450Y-56899762D02*
X128643211Y-56804524D01*
X128643211Y-56804524D02*
X128547973Y-56756905D01*
X128547973Y-56756905D02*
X128357497Y-56709286D01*
X128357497Y-56709286D02*
X128214640Y-56709286D01*
X128214640Y-56709286D02*
X128024164Y-56756905D01*
X128024164Y-56756905D02*
X127928926Y-56804524D01*
X127928926Y-56804524D02*
X127833688Y-56899762D01*
X127833688Y-56899762D02*
X127786069Y-57042619D01*
X127786069Y-57042619D02*
X127786069Y-57137857D01*
X127786069Y-57137857D02*
X127833688Y-57280714D01*
X127833688Y-57280714D02*
X127881307Y-57328333D01*
X128786069Y-58280714D02*
X128786069Y-57709286D01*
X128786069Y-57995000D02*
X127786069Y-57995000D01*
X127786069Y-57995000D02*
X127928926Y-57899762D01*
X127928926Y-57899762D02*
X128024164Y-57804524D01*
X128024164Y-57804524D02*
X128071783Y-57709286D01*
X136249824Y-125964784D02*
G75*
G03*
X134249824Y-127964780I-4J-1999996D01*
G01*
X140135000Y-130014781D02*
G75*
G03*
X137840679Y-131854780I-866J-2349331D01*
G01*
X144699824Y-130014780D02*
G75*
G03*
X145199824Y-129514780I-1J500001D01*
G01*
X134249824Y-131614780D02*
X134249824Y-131854780D01*
X134249824Y-128764780D02*
X134249824Y-127964780D01*
X136249824Y-125964780D02*
X142149824Y-125964780D01*
X143649824Y-125964780D02*
X145199824Y-125964780D01*
X144699824Y-130014780D02*
X140135000Y-130014780D01*
X145199824Y-129044780D02*
X145199824Y-129514780D01*
X145199824Y-125964780D02*
X145199824Y-126194780D01*
X155299824Y-125964784D02*
G75*
G03*
X153299824Y-127964780I-4J-1999996D01*
G01*
X159185000Y-130014781D02*
G75*
G03*
X156890679Y-131854780I-866J-2349331D01*
G01*
X163749824Y-130014780D02*
G75*
G03*
X164249824Y-129514780I-1J500001D01*
G01*
X153299824Y-131614780D02*
X153299824Y-131854780D01*
X153299824Y-128764780D02*
X153299824Y-127964780D01*
X155299824Y-125964780D02*
X161199824Y-125964780D01*
X162699824Y-125964780D02*
X164249824Y-125964780D01*
X163749824Y-130014780D02*
X159185000Y-130014780D01*
X164249824Y-129044780D02*
X164249824Y-129514780D01*
X164249824Y-125964780D02*
X164249824Y-126194780D01*
X174349824Y-125964784D02*
G75*
G03*
X172349824Y-127964780I-4J-1999996D01*
G01*
X178235000Y-130014781D02*
G75*
G03*
X175940679Y-131854780I-866J-2349331D01*
G01*
X182799824Y-130014780D02*
G75*
G03*
X183299824Y-129514780I-1J500001D01*
G01*
X172349824Y-131614780D02*
X172349824Y-131854780D01*
X172349824Y-128764780D02*
X172349824Y-127964780D01*
X174349824Y-125964780D02*
X180249824Y-125964780D01*
X181749824Y-125964780D02*
X183299824Y-125964780D01*
X182799824Y-130014780D02*
X178235000Y-130014780D01*
X183299824Y-129044780D02*
X183299824Y-129514780D01*
X183299824Y-125964780D02*
X183299824Y-126194780D01*
X136249824Y-106914784D02*
G75*
G03*
X134249824Y-108914780I-4J-1999996D01*
G01*
X140135000Y-110964781D02*
G75*
G03*
X137840679Y-112804780I-866J-2349331D01*
G01*
X144699824Y-110964780D02*
G75*
G03*
X145199824Y-110464780I-1J500001D01*
G01*
X134249824Y-112564780D02*
X134249824Y-112804780D01*
X134249824Y-109714780D02*
X134249824Y-108914780D01*
X136249824Y-106914780D02*
X142149824Y-106914780D01*
X143649824Y-106914780D02*
X145199824Y-106914780D01*
X144699824Y-110964780D02*
X140135000Y-110964780D01*
X145199824Y-109994780D02*
X145199824Y-110464780D01*
X145199824Y-106914780D02*
X145199824Y-107144780D01*
X155299824Y-106914784D02*
G75*
G03*
X153299824Y-108914780I-4J-1999996D01*
G01*
X159185000Y-110964781D02*
G75*
G03*
X156890679Y-112804780I-866J-2349331D01*
G01*
X163749824Y-110964780D02*
G75*
G03*
X164249824Y-110464780I-1J500001D01*
G01*
X153299824Y-112564780D02*
X153299824Y-112804780D01*
X153299824Y-109714780D02*
X153299824Y-108914780D01*
X155299824Y-106914780D02*
X161199824Y-106914780D01*
X162699824Y-106914780D02*
X164249824Y-106914780D01*
X163749824Y-110964780D02*
X159185000Y-110964780D01*
X164249824Y-109994780D02*
X164249824Y-110464780D01*
X164249824Y-106914780D02*
X164249824Y-107144780D01*
X174349824Y-106914784D02*
G75*
G03*
X172349824Y-108914780I-4J-1999996D01*
G01*
X178235000Y-110964781D02*
G75*
G03*
X175940679Y-112804780I-866J-2349331D01*
G01*
X182799824Y-110964780D02*
G75*
G03*
X183299824Y-110464780I-1J500001D01*
G01*
X172349824Y-112564780D02*
X172349824Y-112804780D01*
X172349824Y-109714780D02*
X172349824Y-108914780D01*
X174349824Y-106914780D02*
X180249824Y-106914780D01*
X181749824Y-106914780D02*
X183299824Y-106914780D01*
X182799824Y-110964780D02*
X178235000Y-110964780D01*
X183299824Y-109994780D02*
X183299824Y-110464780D01*
X183299824Y-106914780D02*
X183299824Y-107144780D01*
X136249824Y-87864784D02*
G75*
G03*
X134249824Y-89864780I-4J-1999996D01*
G01*
X140135000Y-91914781D02*
G75*
G03*
X137840679Y-93754780I-866J-2349331D01*
G01*
X144699824Y-91914780D02*
G75*
G03*
X145199824Y-91414780I-1J500001D01*
G01*
X134249824Y-93514780D02*
X134249824Y-93754780D01*
X134249824Y-90664780D02*
X134249824Y-89864780D01*
X136249824Y-87864780D02*
X142149824Y-87864780D01*
X143649824Y-87864780D02*
X145199824Y-87864780D01*
X144699824Y-91914780D02*
X140135000Y-91914780D01*
X145199824Y-90944780D02*
X145199824Y-91414780D01*
X145199824Y-87864780D02*
X145199824Y-88094780D01*
X155299824Y-87864784D02*
G75*
G03*
X153299824Y-89864780I-4J-1999996D01*
G01*
X159185000Y-91914781D02*
G75*
G03*
X156890679Y-93754780I-866J-2349331D01*
G01*
X163749824Y-91914780D02*
G75*
G03*
X164249824Y-91414780I-1J500001D01*
G01*
X153299824Y-93514780D02*
X153299824Y-93754780D01*
X153299824Y-90664780D02*
X153299824Y-89864780D01*
X155299824Y-87864780D02*
X161199824Y-87864780D01*
X162699824Y-87864780D02*
X164249824Y-87864780D01*
X163749824Y-91914780D02*
X159185000Y-91914780D01*
X164249824Y-90944780D02*
X164249824Y-91414780D01*
X164249824Y-87864780D02*
X164249824Y-88094780D01*
X174349824Y-87864784D02*
G75*
G03*
X172349824Y-89864780I-4J-1999996D01*
G01*
X178235000Y-91914781D02*
G75*
G03*
X175940679Y-93754780I-866J-2349331D01*
G01*
X182799824Y-91914780D02*
G75*
G03*
X183299824Y-91414780I-1J500001D01*
G01*
X172349824Y-93514780D02*
X172349824Y-93754780D01*
X172349824Y-90664780D02*
X172349824Y-89864780D01*
X174349824Y-87864780D02*
X180249824Y-87864780D01*
X181749824Y-87864780D02*
X183299824Y-87864780D01*
X182799824Y-91914780D02*
X178235000Y-91914780D01*
X183299824Y-90944780D02*
X183299824Y-91414780D01*
X183299824Y-87864780D02*
X183299824Y-88094780D01*
X136249824Y-68814784D02*
G75*
G03*
X134249824Y-70814780I-4J-1999996D01*
G01*
X140135000Y-72864781D02*
G75*
G03*
X137840679Y-74704780I-866J-2349331D01*
G01*
X144699824Y-72864780D02*
G75*
G03*
X145199824Y-72364780I-1J500001D01*
G01*
X134249824Y-74464780D02*
X134249824Y-74704780D01*
X134249824Y-71614780D02*
X134249824Y-70814780D01*
X136249824Y-68814780D02*
X142149824Y-68814780D01*
X143649824Y-68814780D02*
X145199824Y-68814780D01*
X144699824Y-72864780D02*
X140135000Y-72864780D01*
X145199824Y-71894780D02*
X145199824Y-72364780D01*
X145199824Y-68814780D02*
X145199824Y-69044780D01*
X164249824Y-68814780D02*
X164249824Y-69044780D01*
X164249824Y-71894780D02*
X164249824Y-72364780D01*
X163749824Y-72864780D02*
X159185000Y-72864780D01*
X162699824Y-68814780D02*
X164249824Y-68814780D01*
X155299824Y-68814780D02*
X161199824Y-68814780D01*
X153299824Y-71614780D02*
X153299824Y-70814780D01*
X153299824Y-74464780D02*
X153299824Y-74704780D01*
X163749824Y-72864780D02*
G75*
G03*
X164249824Y-72364780I-1J500001D01*
G01*
X159185000Y-72864781D02*
G75*
G03*
X156890679Y-74704780I-866J-2349331D01*
G01*
X155299824Y-68814784D02*
G75*
G03*
X153299824Y-70814780I-4J-1999996D01*
G01*
X174349824Y-68814784D02*
G75*
G03*
X172349824Y-70814780I-4J-1999996D01*
G01*
X178235000Y-72864781D02*
G75*
G03*
X175940679Y-74704780I-866J-2349331D01*
G01*
X182799824Y-72864780D02*
G75*
G03*
X183299824Y-72364780I-1J500001D01*
G01*
X172349824Y-74464780D02*
X172349824Y-74704780D01*
X172349824Y-71614780D02*
X172349824Y-70814780D01*
X174349824Y-68814780D02*
X180249824Y-68814780D01*
X181749824Y-68814780D02*
X183299824Y-68814780D01*
X182799824Y-72864780D02*
X178235000Y-72864780D01*
X183299824Y-71894780D02*
X183299824Y-72364780D01*
X183299824Y-68814780D02*
X183299824Y-69044780D01*
D11*
X156687500Y-102762500D02*
X156687500Y-101612500D01*
X163987500Y-102762500D02*
X156687500Y-102762500D01*
X163987500Y-97262500D02*
X156687500Y-97262500D01*
X129750000Y-134618750D02*
X128600000Y-134618750D01*
X129750000Y-127318750D02*
X129750000Y-134618750D01*
X124250000Y-127318750D02*
X124250000Y-134618750D01*
X192512500Y-131287500D02*
X192512500Y-138587500D01*
X198012500Y-131287500D02*
X198012500Y-138587500D01*
X198012500Y-138587500D02*
X196862500Y-138587500D01*
X194837500Y-60800000D02*
X193687500Y-60800000D01*
X194837500Y-53500000D02*
X194837500Y-60800000D01*
X189337500Y-53500000D02*
X189337500Y-60800000D01*
X136893750Y-60800000D02*
X135743750Y-60800000D01*
X136893750Y-53500000D02*
X136893750Y-60800000D01*
X131393750Y-53500000D02*
X131393750Y-60800000D01*
%LPC*%
D12*
X147947592Y-60772480D03*
D13*
X147947592Y-60772480D03*
D12*
X171153689Y-60772695D03*
D13*
X171153689Y-60772695D03*
D12*
X171158857Y-37656395D03*
D13*
X171158857Y-37656395D03*
D12*
X147943149Y-37649935D03*
D13*
X147943149Y-37649935D03*
D14*
X163243750Y-37262500D03*
X160703750Y-37262500D03*
X155623750Y-37262500D03*
X158163750Y-37262500D03*
D12*
X128587500Y-117475000D03*
D13*
X128587500Y-117475000D03*
D12*
X128587500Y-53181250D03*
D13*
X128587500Y-53181250D03*
X101000000Y-141000000D03*
D12*
X101000000Y-141000000D03*
X101000000Y-39000000D03*
D13*
X101000000Y-39000000D03*
X203000000Y-141000000D03*
D12*
X203000000Y-141000000D03*
X203000000Y-39000000D03*
D13*
X203000000Y-39000000D03*
D15*
X105380000Y-39211250D03*
X105380000Y-41751250D03*
D16*
X105380000Y-44291250D03*
X105380000Y-46831250D03*
D15*
X105380000Y-49371250D03*
X105380000Y-51911250D03*
X105380000Y-54451250D03*
X105380000Y-56991250D03*
X105380000Y-59531250D03*
X105380000Y-62071250D03*
X105380000Y-64611250D03*
X105380000Y-67151250D03*
X120620000Y-39211250D03*
D16*
X120620000Y-41751250D03*
D15*
X120620000Y-44291250D03*
X120620000Y-46831250D03*
X120620000Y-49371250D03*
X120620000Y-51911250D03*
X120620000Y-54451250D03*
X120620000Y-56991250D03*
X120620000Y-59531250D03*
X120620000Y-62071250D03*
X120620000Y-64611250D03*
X120620000Y-67151250D03*
D17*
X200500000Y-128250000D03*
X195500000Y-128250000D03*
D18*
X203600000Y-121250000D03*
X192400000Y-121250000D03*
D17*
X198000000Y-113750000D03*
X195500000Y-113750000D03*
D19*
X200500000Y-113750000D03*
D17*
X200500000Y-106250000D03*
X195500000Y-106250000D03*
D18*
X203600000Y-99250000D03*
X192400000Y-99250000D03*
D17*
X198000000Y-91750000D03*
X195500000Y-91750000D03*
D19*
X200500000Y-91750000D03*
D17*
X200500000Y-84250000D03*
X195500000Y-84250000D03*
D18*
X203600000Y-77250000D03*
X192400000Y-77250000D03*
D17*
X198000000Y-69750000D03*
X195500000Y-69750000D03*
D19*
X200500000Y-69750000D03*
D20*
X142875000Y-127635000D03*
D21*
X146425000Y-127635000D03*
X132975000Y-130175000D03*
D20*
X136525000Y-130175000D03*
D22*
X135255000Y-132715000D03*
D23*
X140335000Y-132715000D03*
D22*
X145415000Y-132715000D03*
D20*
X161925000Y-127635000D03*
D21*
X165475000Y-127635000D03*
X152025000Y-130175000D03*
D20*
X155575000Y-130175000D03*
D22*
X154305000Y-132715000D03*
D23*
X159385000Y-132715000D03*
D22*
X164465000Y-132715000D03*
D20*
X180975000Y-127635000D03*
D21*
X184525000Y-127635000D03*
X171075000Y-130175000D03*
D20*
X174625000Y-130175000D03*
D22*
X173355000Y-132715000D03*
D23*
X178435000Y-132715000D03*
D22*
X183515000Y-132715000D03*
D20*
X142875000Y-108585000D03*
D21*
X146425000Y-108585000D03*
X132975000Y-111125000D03*
D20*
X136525000Y-111125000D03*
D22*
X135255000Y-113665000D03*
D23*
X140335000Y-113665000D03*
D22*
X145415000Y-113665000D03*
D20*
X161925000Y-108585000D03*
D21*
X165475000Y-108585000D03*
X152025000Y-111125000D03*
D20*
X155575000Y-111125000D03*
D22*
X154305000Y-113665000D03*
D23*
X159385000Y-113665000D03*
D22*
X164465000Y-113665000D03*
D20*
X180975000Y-108585000D03*
D21*
X184525000Y-108585000D03*
X171075000Y-111125000D03*
D20*
X174625000Y-111125000D03*
D22*
X173355000Y-113665000D03*
D23*
X178435000Y-113665000D03*
D22*
X183515000Y-113665000D03*
D20*
X142875000Y-89535000D03*
D21*
X146425000Y-89535000D03*
X132975000Y-92075000D03*
D20*
X136525000Y-92075000D03*
D22*
X135255000Y-94615000D03*
D23*
X140335000Y-94615000D03*
D22*
X145415000Y-94615000D03*
D20*
X161925000Y-89535000D03*
D21*
X165475000Y-89535000D03*
X152025000Y-92075000D03*
D20*
X155575000Y-92075000D03*
D22*
X154305000Y-94615000D03*
D23*
X159385000Y-94615000D03*
D22*
X164465000Y-94615000D03*
D20*
X180975000Y-89535000D03*
D21*
X184525000Y-89535000D03*
X171075000Y-92075000D03*
D20*
X174625000Y-92075000D03*
D22*
X173355000Y-94615000D03*
D23*
X178435000Y-94615000D03*
D22*
X183515000Y-94615000D03*
D20*
X142875000Y-70485000D03*
D21*
X146425000Y-70485000D03*
X132975000Y-73025000D03*
D20*
X136525000Y-73025000D03*
D22*
X135255000Y-75565000D03*
D23*
X140335000Y-75565000D03*
D22*
X145415000Y-75565000D03*
X164465000Y-75565000D03*
D23*
X159385000Y-75565000D03*
D22*
X154305000Y-75565000D03*
D20*
X155575000Y-73025000D03*
D21*
X152025000Y-73025000D03*
X165475000Y-70485000D03*
D20*
X161925000Y-70485000D03*
X180975000Y-70485000D03*
D21*
X184525000Y-70485000D03*
X171075000Y-73025000D03*
D20*
X174625000Y-73025000D03*
D22*
X173355000Y-75565000D03*
D23*
X178435000Y-75565000D03*
D22*
X183515000Y-75565000D03*
D24*
X157887500Y-98362500D03*
X157887500Y-101662500D03*
X162787500Y-101662500D03*
X162787500Y-98362500D03*
D25*
X125350000Y-133418750D03*
X128650000Y-133418750D03*
X128650000Y-128518750D03*
X125350000Y-128518750D03*
X193612500Y-132487500D03*
X196912500Y-132487500D03*
X196912500Y-137387500D03*
X193612500Y-137387500D03*
X190437500Y-59600000D03*
X193737500Y-59600000D03*
X193737500Y-54700000D03*
X190437500Y-54700000D03*
X132493750Y-59600000D03*
X135793750Y-59600000D03*
X135793750Y-54700000D03*
X132493750Y-54700000D03*
D26*
X121112500Y-80140000D03*
D27*
X121112500Y-87760000D03*
D26*
X121112500Y-95380000D03*
D27*
X121112500Y-103000000D03*
D26*
X121112500Y-109667500D03*
D27*
X121112500Y-117287500D03*
X115556250Y-131603750D03*
D26*
X115556250Y-123983750D03*
D27*
X110331250Y-131603750D03*
D26*
X110331250Y-123983750D03*
X104443750Y-123983750D03*
D27*
X104443750Y-131603750D03*
D26*
X115556250Y-109667500D03*
D27*
X115556250Y-117287500D03*
D26*
X110000000Y-109667500D03*
D27*
X110000000Y-117287500D03*
D26*
X104443750Y-109667500D03*
D27*
X104443750Y-117287500D03*
D26*
X115556250Y-95380000D03*
D27*
X115556250Y-103000000D03*
X110000000Y-103000000D03*
D26*
X110000000Y-95380000D03*
X104443750Y-95380000D03*
D27*
X104443750Y-103000000D03*
D26*
X115556250Y-80140000D03*
D27*
X115556250Y-87760000D03*
D26*
X110000000Y-80140000D03*
D27*
X110000000Y-87760000D03*
D26*
X104443750Y-80140000D03*
D27*
X104443750Y-87760000D03*
D28*
X160017500Y-103187500D03*
X160657500Y-103187500D03*
D29*
X130175000Y-130648750D03*
X130175000Y-131288750D03*
X191293750Y-135091250D03*
X191293750Y-135731250D03*
X188118750Y-56510000D03*
X188118750Y-57150000D03*
X129381250Y-57175000D03*
X129381250Y-57815000D03*
%LPD*%
M02*
