G04 #@! TF.GenerationSoftware,KiCad,Pcbnew,7.0.5*
G04 #@! TF.CreationDate,2023-07-12T22:01:21-07:00*
G04 #@! TF.ProjectId,Custom_KeyPad,43757374-6f6d-45f4-9b65-795061642e6b,rev?*
G04 #@! TF.SameCoordinates,Original*
G04 #@! TF.FileFunction,Paste,Bot*
G04 #@! TF.FilePolarity,Positive*
%FSLAX46Y46*%
G04 Gerber Fmt 4.6, Leading zero omitted, Abs format (unit mm)*
G04 Created by KiCad (PCBNEW 7.0.5) date 2023-07-12 22:01:21*
%MOMM*%
%LPD*%
G01*
G04 APERTURE LIST*
G04 Aperture macros list*
%AMRoundRect*
0 Rectangle with rounded corners*
0 $1 Rounding radius*
0 $2 $3 $4 $5 $6 $7 $8 $9 X,Y pos of 4 corners*
0 Add a 4 corners polygon primitive as box body*
4,1,4,$2,$3,$4,$5,$6,$7,$8,$9,$2,$3,0*
0 Add four circle primitives for the rounded corners*
1,1,$1+$1,$2,$3*
1,1,$1+$1,$4,$5*
1,1,$1+$1,$6,$7*
1,1,$1+$1,$8,$9*
0 Add four rect primitives between the rounded corners*
20,1,$1+$1,$2,$3,$4,$5,0*
20,1,$1+$1,$4,$5,$6,$7,0*
20,1,$1+$1,$6,$7,$8,$9,0*
20,1,$1+$1,$8,$9,$2,$3,0*%
G04 Aperture macros list end*
%ADD10RoundRect,0.250000X1.025000X1.000000X-1.025000X1.000000X-1.025000X-1.000000X1.025000X-1.000000X0*%
%ADD11R,1.500000X0.900000*%
%ADD12R,0.900000X1.500000*%
%ADD13RoundRect,0.079500X0.079500X0.100500X-0.079500X0.100500X-0.079500X-0.100500X0.079500X-0.100500X0*%
%ADD14RoundRect,0.079500X-0.100500X0.079500X-0.100500X-0.079500X0.100500X-0.079500X0.100500X0.079500X0*%
G04 APERTURE END LIST*
D10*
X146425000Y-127635000D03*
X132975000Y-130175000D03*
X165475000Y-127635000D03*
X152025000Y-130175000D03*
X184525000Y-127635000D03*
X171075000Y-130175000D03*
X146425000Y-108585000D03*
X132975000Y-111125000D03*
X165475000Y-108585000D03*
X152025000Y-111125000D03*
X184525000Y-108585000D03*
X171075000Y-111125000D03*
X146425000Y-89535000D03*
X132975000Y-92075000D03*
X165475000Y-89535000D03*
X152025000Y-92075000D03*
X184525000Y-89535000D03*
X171075000Y-92075000D03*
X146425000Y-70485000D03*
X132975000Y-73025000D03*
X152025000Y-73025000D03*
X165475000Y-70485000D03*
X184525000Y-70485000D03*
X171075000Y-73025000D03*
D11*
X157887500Y-98362500D03*
X157887500Y-101662500D03*
X162787500Y-101662500D03*
X162787500Y-98362500D03*
D12*
X125350000Y-133418750D03*
X128650000Y-133418750D03*
X128650000Y-128518750D03*
X125350000Y-128518750D03*
X193612500Y-132487500D03*
X196912500Y-132487500D03*
X196912500Y-137387500D03*
X193612500Y-137387500D03*
X190437500Y-59600000D03*
X193737500Y-59600000D03*
X193737500Y-54700000D03*
X190437500Y-54700000D03*
X132493750Y-59600000D03*
X135793750Y-59600000D03*
X135793750Y-54700000D03*
X132493750Y-54700000D03*
D13*
X159992500Y-103187500D03*
X160682500Y-103187500D03*
D14*
X130175000Y-130623750D03*
X130175000Y-131313750D03*
X191293750Y-135066250D03*
X191293750Y-135756250D03*
X188118750Y-56485000D03*
X188118750Y-57175000D03*
X129381250Y-57150000D03*
X129381250Y-57840000D03*
M02*
