G04 #@! TF.GenerationSoftware,KiCad,Pcbnew,7.0.5*
G04 #@! TF.CreationDate,2023-07-12T22:01:21-07:00*
G04 #@! TF.ProjectId,Custom_KeyPad,43757374-6f6d-45f4-9b65-795061642e6b,rev?*
G04 #@! TF.SameCoordinates,Original*
G04 #@! TF.FileFunction,Soldermask,Top*
G04 #@! TF.FilePolarity,Negative*
%FSLAX46Y46*%
G04 Gerber Fmt 4.6, Leading zero omitted, Abs format (unit mm)*
G04 Created by KiCad (PCBNEW 7.0.5) date 2023-07-12 22:01:21*
%MOMM*%
%LPD*%
G01*
G04 APERTURE LIST*
G04 Aperture macros list*
%AMRoundRect*
0 Rectangle with rounded corners*
0 $1 Rounding radius*
0 $2 $3 $4 $5 $6 $7 $8 $9 X,Y pos of 4 corners*
0 Add a 4 corners polygon primitive as box body*
4,1,4,$2,$3,$4,$5,$6,$7,$8,$9,$2,$3,0*
0 Add four circle primitives for the rounded corners*
1,1,$1+$1,$2,$3*
1,1,$1+$1,$4,$5*
1,1,$1+$1,$6,$7*
1,1,$1+$1,$8,$9*
0 Add four rect primitives between the rounded corners*
20,1,$1+$1,$2,$3,$4,$5,0*
20,1,$1+$1,$4,$5,$6,$7,0*
20,1,$1+$1,$6,$7,$8,$9,0*
20,1,$1+$1,$8,$9,$2,$3,0*%
G04 Aperture macros list end*
%ADD10C,2.600000*%
%ADD11C,3.500000*%
%ADD12O,1.600000X2.000000*%
%ADD13RoundRect,0.200000X0.800000X-0.200000X0.800000X0.200000X-0.800000X0.200000X-0.800000X-0.200000X0*%
%ADD14C,2.000000*%
%ADD15R,2.000000X3.200000*%
%ADD16R,2.000000X2.000000*%
%ADD17C,3.300000*%
%ADD18C,1.750000*%
%ADD19C,3.987800*%
%ADD20R,1.600000X1.600000*%
%ADD21O,1.600000X1.600000*%
G04 APERTURE END LIST*
D10*
X147947592Y-60772480D03*
D11*
X147947592Y-60772480D03*
D10*
X171153689Y-60772695D03*
D11*
X171153689Y-60772695D03*
D10*
X171158857Y-37656395D03*
D11*
X171158857Y-37656395D03*
D10*
X147943149Y-37649935D03*
D11*
X147943149Y-37649935D03*
D12*
X163243750Y-37262500D03*
X160703750Y-37262500D03*
X155623750Y-37262500D03*
X158163750Y-37262500D03*
D10*
X128587500Y-117475000D03*
D11*
X128587500Y-117475000D03*
D10*
X128587500Y-53181250D03*
D11*
X128587500Y-53181250D03*
X101000000Y-141000000D03*
D10*
X101000000Y-141000000D03*
X101000000Y-39000000D03*
D11*
X101000000Y-39000000D03*
X203000000Y-141000000D03*
D10*
X203000000Y-141000000D03*
X203000000Y-39000000D03*
D11*
X203000000Y-39000000D03*
D13*
X127000000Y-46550000D03*
X127000000Y-42350000D03*
D14*
X200500000Y-128250000D03*
X195500000Y-128250000D03*
D15*
X203600000Y-121250000D03*
X192400000Y-121250000D03*
D14*
X198000000Y-113750000D03*
X195500000Y-113750000D03*
D16*
X200500000Y-113750000D03*
D14*
X200500000Y-106250000D03*
X195500000Y-106250000D03*
D15*
X203600000Y-99250000D03*
X192400000Y-99250000D03*
D14*
X198000000Y-91750000D03*
X195500000Y-91750000D03*
D16*
X200500000Y-91750000D03*
D14*
X200500000Y-84250000D03*
X195500000Y-84250000D03*
D15*
X203600000Y-77250000D03*
X192400000Y-77250000D03*
D14*
X198000000Y-69750000D03*
X195500000Y-69750000D03*
D16*
X200500000Y-69750000D03*
D17*
X142875000Y-127635000D03*
X136525000Y-130175000D03*
D18*
X135255000Y-132715000D03*
D19*
X140335000Y-132715000D03*
D18*
X145415000Y-132715000D03*
D17*
X161925000Y-127635000D03*
X155575000Y-130175000D03*
D18*
X154305000Y-132715000D03*
D19*
X159385000Y-132715000D03*
D18*
X164465000Y-132715000D03*
D17*
X180975000Y-127635000D03*
X174625000Y-130175000D03*
D18*
X173355000Y-132715000D03*
D19*
X178435000Y-132715000D03*
D18*
X183515000Y-132715000D03*
D17*
X142875000Y-108585000D03*
X136525000Y-111125000D03*
D18*
X135255000Y-113665000D03*
D19*
X140335000Y-113665000D03*
D18*
X145415000Y-113665000D03*
D17*
X161925000Y-108585000D03*
X155575000Y-111125000D03*
D18*
X154305000Y-113665000D03*
D19*
X159385000Y-113665000D03*
D18*
X164465000Y-113665000D03*
D17*
X180975000Y-108585000D03*
X174625000Y-111125000D03*
D18*
X173355000Y-113665000D03*
D19*
X178435000Y-113665000D03*
D18*
X183515000Y-113665000D03*
D17*
X142875000Y-89535000D03*
X136525000Y-92075000D03*
D18*
X135255000Y-94615000D03*
D19*
X140335000Y-94615000D03*
D18*
X145415000Y-94615000D03*
D17*
X161925000Y-89535000D03*
X155575000Y-92075000D03*
D18*
X154305000Y-94615000D03*
D19*
X159385000Y-94615000D03*
D18*
X164465000Y-94615000D03*
D17*
X180975000Y-89535000D03*
X174625000Y-92075000D03*
D18*
X173355000Y-94615000D03*
D19*
X178435000Y-94615000D03*
D18*
X183515000Y-94615000D03*
D17*
X142875000Y-70485000D03*
X136525000Y-73025000D03*
D18*
X135255000Y-75565000D03*
D19*
X140335000Y-75565000D03*
D18*
X145415000Y-75565000D03*
X164465000Y-75565000D03*
D19*
X159385000Y-75565000D03*
D18*
X154305000Y-75565000D03*
D17*
X155575000Y-73025000D03*
X161925000Y-70485000D03*
X180975000Y-70485000D03*
X174625000Y-73025000D03*
D18*
X173355000Y-75565000D03*
D19*
X178435000Y-75565000D03*
D18*
X183515000Y-75565000D03*
D20*
X121112500Y-80140000D03*
D21*
X121112500Y-87760000D03*
D20*
X121112500Y-95380000D03*
D21*
X121112500Y-103000000D03*
D20*
X121112500Y-109667500D03*
D21*
X121112500Y-117287500D03*
X115556250Y-131603750D03*
D20*
X115556250Y-123983750D03*
D21*
X110331250Y-131603750D03*
D20*
X110331250Y-123983750D03*
X104443750Y-123983750D03*
D21*
X104443750Y-131603750D03*
D20*
X115556250Y-109667500D03*
D21*
X115556250Y-117287500D03*
D20*
X110000000Y-109667500D03*
D21*
X110000000Y-117287500D03*
D20*
X104443750Y-109667500D03*
D21*
X104443750Y-117287500D03*
D20*
X115556250Y-95380000D03*
D21*
X115556250Y-103000000D03*
X110000000Y-103000000D03*
D20*
X110000000Y-95380000D03*
X104443750Y-95380000D03*
D21*
X104443750Y-103000000D03*
D20*
X115556250Y-80140000D03*
D21*
X115556250Y-87760000D03*
D20*
X110000000Y-80140000D03*
D21*
X110000000Y-87760000D03*
D20*
X104443750Y-80140000D03*
D21*
X104443750Y-87760000D03*
M02*
