M48
; DRILL file {KiCad 7.0.5} date Wed Sep 13 23:13:46 2023
; FORMAT={-:-/ absolute / metric / decimal}
; #@! TF.CreationDate,2023-09-13T23:13:46-07:00
; #@! TF.GenerationSoftware,Kicad,Pcbnew,7.0.5
; #@! TF.FileFunction,Plated,1,2,PTH
FMAT,2
METRIC
; #@! TA.AperFunction,Plated,PTH,ViaDrill
T1C0.400
; #@! TA.AperFunction,Plated,PTH,ComponentDrill
T2C0.800
; #@! TA.AperFunction,Plated,PTH,ComponentDrill
T3C1.000
; #@! TA.AperFunction,Plated,PTH,ComponentDrill
T4C1.500
; #@! TA.AperFunction,Plated,PTH,ComponentDrill
T5C2.200
; #@! TA.AperFunction,Plated,PTH,ComponentDrill
T6C3.000
%
G90
G05
T1
X123.363Y-36.146
X124.47Y-40.58
X124.48Y-43.25
X125.412Y-134.938
X127.0Y-134.938
X129.381Y-99.219
X129.381Y-123.031
X130.175Y-42.069
X130.969Y-47.625
X130.969Y-134.144
X131.762Y-123.825
X132.93Y-44.4
X134.938Y-99.219
X154.781Y-101.6
X154.781Y-106.362
X157.956Y-103.981
X157.956Y-106.362
X165.894Y-98.425
X191.294Y-66.675
X191.294Y-88.9
X191.294Y-111.125
X192.881Y-139.7
X193.675Y-130.969
X199.231Y-132.556
T2
X104.444Y-80.14
X104.444Y-87.76
X104.444Y-95.38
X104.444Y-103.0
X104.444Y-109.667
X104.444Y-117.287
X104.444Y-123.984
X104.444Y-131.604
X110.0Y-80.14
X110.0Y-87.76
X110.0Y-95.38
X110.0Y-103.0
X110.0Y-109.667
X110.0Y-117.287
X110.331Y-123.984
X110.331Y-131.604
X115.556Y-80.14
X115.556Y-87.76
X115.556Y-95.38
X115.556Y-103.0
X115.556Y-109.667
X115.556Y-117.287
X115.556Y-123.984
X115.556Y-131.604
X121.112Y-80.14
X121.112Y-87.76
X121.112Y-95.38
X121.112Y-103.0
X121.112Y-109.667
X121.112Y-117.287
T3
X105.38Y-39.211
X105.38Y-41.751
X105.38Y-44.291
X105.38Y-46.831
X105.38Y-49.371
X105.38Y-51.911
X105.38Y-54.451
X105.38Y-56.991
X105.38Y-59.531
X105.38Y-62.071
X105.38Y-64.611
X105.38Y-67.151
X120.62Y-39.211
X120.62Y-41.751
X120.62Y-44.291
X120.62Y-46.831
X120.62Y-49.371
X120.62Y-51.911
X120.62Y-54.451
X120.62Y-56.991
X120.62Y-59.531
X120.62Y-62.071
X120.62Y-64.611
X120.62Y-67.151
X155.624Y-37.262
X158.164Y-37.262
X160.704Y-37.262
X163.244Y-37.262
X195.5Y-69.75
X195.5Y-84.25
X195.5Y-91.75
X195.5Y-106.25
X195.5Y-113.75
X195.5Y-128.25
X198.0Y-69.75
X198.0Y-91.75
X198.0Y-113.75
X200.5Y-69.75
X200.5Y-84.25
X200.5Y-91.75
X200.5Y-106.25
X200.5Y-113.75
X200.5Y-128.25
T5
X101.0Y-39.0
X101.0Y-141.0
X128.588Y-39.0
X128.588Y-91.281
X128.588Y-117.475
X147.943Y-37.65
X147.948Y-60.772
X171.154Y-60.773
X171.159Y-37.656
X203.0Y-39.0
X203.0Y-60.773
X203.0Y-141.0
T6
X136.525Y-73.025
X136.525Y-92.075
X136.525Y-111.125
X136.525Y-130.175
X142.875Y-70.485
X142.875Y-89.535
X142.875Y-108.585
X142.875Y-127.635
X155.575Y-73.025
X155.575Y-92.075
X155.575Y-111.125
X155.575Y-130.175
X161.925Y-70.485
X161.925Y-89.535
X161.925Y-108.585
X161.925Y-127.635
X174.625Y-73.025
X174.625Y-92.075
X174.625Y-111.125
X174.625Y-130.175
X180.975Y-70.485
X180.975Y-89.535
X180.975Y-108.585
X180.975Y-127.635
T4
X192.4Y-76.6G85X192.4Y-77.9
G05
X192.4Y-98.6G85X192.4Y-99.9
G05
X192.4Y-120.6G85X192.4Y-121.9
G05
X203.6Y-76.6G85X203.6Y-77.9
G05
X203.6Y-98.6G85X203.6Y-99.9
G05
X203.6Y-120.6G85X203.6Y-121.9
G05
T0
M30
